<mxfile host="app.diagrams.net" agent="Mozilla/5.0 (X11; Ubuntu; Linux x86_64; rv:138.0) Gecko/20100101 Firefox/138.0" version="27.0.6" pages="2">
  <diagram name="Page-1" id="0yerQAa0baYgFGr-IkGp">
    <mxGraphModel dx="1412" dy="932" grid="1" gridSize="39.37" guides="1" tooltips="1" connect="1" arrows="1" fold="1" page="1" pageScale="1" pageWidth="1776" pageHeight="1811" math="0" shadow="0">
      <root>
        <mxCell id="0" />
        <mxCell id="1" parent="0" />
        <mxCell id="xokh4Ez91sBqfJbft43O-1" value="" style="rounded=0;whiteSpace=wrap;html=1;movable=1;resizable=1;rotatable=1;deletable=1;editable=1;locked=0;connectable=1;strokeWidth=1.9685;" parent="1" vertex="1">
          <mxGeometry x="1181.1" y="787.4" width="590.55" height="393.7" as="geometry" />
        </mxCell>
        <mxCell id="m4RewTG6IQld1wpyNN1v-41" value="VERMONA KEYS" style="rounded=0;whiteSpace=wrap;html=1;strokeWidth=1.9685;fontSize=18;movable=1;resizable=1;rotatable=1;deletable=1;editable=1;locked=0;connectable=1;" parent="1" vertex="1">
          <mxGeometry x="433.05" y="1201" width="1338.58" height="602" as="geometry" />
        </mxCell>
        <mxCell id="wlH6y_KVvPXo0IShCjxc-1" value="" style="rounded=0;whiteSpace=wrap;html=1;strokeWidth=1.9685;fontSize=18;movable=1;resizable=1;rotatable=1;deletable=1;editable=1;locked=0;connectable=1;" parent="1" vertex="1">
          <mxGeometry y="1181.1" width="433.07" height="621.9" as="geometry" />
        </mxCell>
        <mxCell id="xokh4Ez91sBqfJbft43O-5" value="" style="rounded=0;whiteSpace=wrap;html=1;movable=1;resizable=1;rotatable=1;deletable=1;editable=1;locked=0;connectable=1;strokeWidth=1.9685;" parent="1" vertex="1">
          <mxGeometry x="-2.2737367544323206e-13" y="1.4210854715202004e-14" width="590.55" height="590.55" as="geometry" />
        </mxCell>
        <mxCell id="xokh4Ez91sBqfJbft43O-4" value="" style="rounded=0;whiteSpace=wrap;html=1;movable=1;resizable=1;rotatable=1;deletable=1;editable=1;locked=0;connectable=1;strokeWidth=1.9685;" parent="1" vertex="1">
          <mxGeometry x="-2.2737367544323206e-13" y="590.54" width="590.55" height="295.275" as="geometry" />
        </mxCell>
        <mxCell id="xokh4Ez91sBqfJbft43O-3" value="" style="rounded=0;whiteSpace=wrap;html=1;movable=1;resizable=1;rotatable=1;deletable=1;editable=1;locked=0;connectable=1;strokeWidth=1.9685;" parent="1" vertex="1">
          <mxGeometry x="-2.2737367544323206e-13" y="885.8199999999999" width="590.55" height="295.275" as="geometry" />
        </mxCell>
        <mxCell id="xokh4Ez91sBqfJbft43O-2" value="" style="rounded=0;whiteSpace=wrap;html=1;movable=1;resizable=1;rotatable=1;deletable=1;editable=1;locked=0;connectable=1;strokeWidth=1.9685;" parent="1" vertex="1">
          <mxGeometry x="1181.0799999999997" y="393.7" width="590.55" height="393.7" as="geometry" />
        </mxCell>
        <mxCell id="d05ju5goZMEUmhi3or16-11" value="" style="rounded=0;whiteSpace=wrap;html=1;movable=1;resizable=1;rotatable=1;deletable=1;editable=1;locked=0;connectable=1;strokeWidth=1.9685;" parent="1" vertex="1">
          <mxGeometry x="1181.1" width="590.55" height="393.7" as="geometry" />
        </mxCell>
        <mxCell id="56mNvcB_yV8vKIjIocQw-3" value="" style="rounded=0;whiteSpace=wrap;html=1;movable=1;resizable=1;rotatable=1;deletable=1;editable=1;locked=0;connectable=1;strokeWidth=1.9685;" parent="1" vertex="1">
          <mxGeometry x="590.55" width="295.27" height="787.4" as="geometry" />
        </mxCell>
        <mxCell id="d05ju5goZMEUmhi3or16-10" value="" style="rounded=0;whiteSpace=wrap;html=1;movable=1;resizable=1;rotatable=1;deletable=1;editable=1;locked=0;connectable=1;strokeWidth=1.9685;" parent="1" vertex="1">
          <mxGeometry x="590.55" y="787.4" width="590.55" height="393.7" as="geometry" />
        </mxCell>
        <mxCell id="m4RewTG6IQld1wpyNN1v-2" value="(sin&amp;gt;saw)&lt;br&gt;WAVE" style="rounded=0;whiteSpace=wrap;html=1;strokeWidth=1.1810999999999998;fontSize=18;" parent="1" vertex="1">
          <mxGeometry x="39.36999999999989" y="169.29" width="141.732" height="141.732" as="geometry" />
        </mxCell>
        <mxCell id="m4RewTG6IQld1wpyNN1v-3" value="&lt;div&gt;LFM&lt;/div&gt;&lt;div&gt;FM&lt;/div&gt;" style="rounded=0;whiteSpace=wrap;html=1;strokeWidth=1.1810999999999998;fontSize=18;" parent="1" vertex="1">
          <mxGeometry x="354.4299999999999" y="311.02" width="118.11" height="125.984" as="geometry" />
        </mxCell>
        <mxCell id="m4RewTG6IQld1wpyNN1v-4" value="SQUARE" style="rounded=0;whiteSpace=wrap;html=1;strokeWidth=1.1810999999999998;fontSize=18;" parent="1" vertex="1">
          <mxGeometry x="236.2199999999999" y="169.29" width="141.732" height="141.732" as="geometry" />
        </mxCell>
        <mxCell id="m4RewTG6IQld1wpyNN1v-6" value="(HARD /&amp;nbsp;SOFT)&lt;br&gt;MODE" style="rounded=0;whiteSpace=wrap;html=1;strokeWidth=1.1810999999999998;fontSize=18;" parent="1" vertex="1">
          <mxGeometry x="137.80000000000004" y="311.02" width="98.42" height="125.98" as="geometry" />
        </mxCell>
        <mxCell id="m4RewTG6IQld1wpyNN1v-7" value="(sin&amp;gt;saw)&lt;br&gt;WAVE" style="rounded=0;whiteSpace=wrap;html=1;strokeWidth=1.1810999999999998;fontSize=18;" parent="1" vertex="1">
          <mxGeometry x="39.3699999999999" y="27.559999999999974" width="141.732" height="141.732" as="geometry" />
        </mxCell>
        <mxCell id="m4RewTG6IQld1wpyNN1v-9" value="SHAPE&lt;br&gt;(digitalizer)" style="rounded=0;whiteSpace=wrap;html=1;strokeWidth=1.1810999999999998;fontSize=18;" parent="1" vertex="1">
          <mxGeometry x="236.2199999999999" y="27.55999999999996" width="141.732" height="141.732" as="geometry" />
        </mxCell>
        <mxCell id="m4RewTG6IQld1wpyNN1v-10" value="Tune" style="rounded=0;whiteSpace=wrap;html=1;strokeWidth=1.1810999999999998;fontSize=18;" parent="1" vertex="1">
          <mxGeometry x="429.12999999999994" y="27.560000000000002" width="141.732" height="141.732" as="geometry" />
        </mxCell>
        <mxCell id="m4RewTG6IQld1wpyNN1v-14" value="OSC-2" style="rounded=0;whiteSpace=wrap;html=1;strokeWidth=1.1810999999999998;fontSize=18;" parent="1" vertex="1">
          <mxGeometry x="39.03999999999963" y="942.91" width="181.102" height="181.102" as="geometry" />
        </mxCell>
        <mxCell id="m4RewTG6IQld1wpyNN1v-16" value="SUB" style="rounded=0;whiteSpace=wrap;html=1;strokeWidth=1.1810999999999998;fontSize=18;" parent="1" vertex="1">
          <mxGeometry x="370.39999999999964" y="942.9099999999999" width="181.102" height="181.102" as="geometry" />
        </mxCell>
        <mxCell id="m4RewTG6IQld1wpyNN1v-17" value="&lt;div&gt;SUB&lt;/div&gt;&lt;div&gt;&lt;br&gt;&lt;/div&gt;" style="rounded=0;whiteSpace=wrap;html=1;strokeWidth=1.1810999999999998;fontSize=18;" parent="1" vertex="1">
          <mxGeometry x="291.7699999999997" y="1023.62" width="118.11" height="125.984" as="geometry" />
        </mxCell>
        <mxCell id="m4RewTG6IQld1wpyNN1v-19" value="&lt;div&gt;OSC-1&lt;/div&gt;" style="rounded=0;whiteSpace=wrap;html=1;strokeWidth=1.1810999999999998;fontSize=18;" parent="1" vertex="1">
          <mxGeometry x="614.9399999999999" y="277.20000000000005" width="61.62" height="196.85" as="geometry" />
        </mxCell>
        <mxCell id="m4RewTG6IQld1wpyNN1v-20" value="OSC-2" style="rounded=0;whiteSpace=wrap;html=1;strokeWidth=1.1810999999999998;fontSize=18;" parent="1" vertex="1">
          <mxGeometry x="676.56" y="277.18" width="61.62" height="196.85" as="geometry" />
        </mxCell>
        <mxCell id="m4RewTG6IQld1wpyNN1v-21" value="SUB" style="rounded=0;whiteSpace=wrap;html=1;strokeWidth=1.1810999999999998;fontSize=18;" parent="1" vertex="1">
          <mxGeometry x="738.18" y="277.2" width="61.62" height="196.85" as="geometry" />
        </mxCell>
        <mxCell id="m4RewTG6IQld1wpyNN1v-22" value="NOISE" style="rounded=0;whiteSpace=wrap;html=1;strokeWidth=1.1810999999999998;fontSize=18;" parent="1" vertex="1">
          <mxGeometry x="799.8" y="277.32" width="61.62" height="196.73" as="geometry" />
        </mxCell>
        <mxCell id="m4RewTG6IQld1wpyNN1v-23" value="LOOPER" style="rounded=0;whiteSpace=wrap;html=1;strokeWidth=1.1810999999999998;fontSize=18;" parent="1" vertex="1">
          <mxGeometry x="614.94" y="474.0299999999999" width="118.11" height="125.984" as="geometry" />
        </mxCell>
        <mxCell id="m4RewTG6IQld1wpyNN1v-24" value="EXTERNAL" style="rounded=0;whiteSpace=wrap;html=1;strokeWidth=1.1810999999999998;fontSize=18;" parent="1" vertex="1">
          <mxGeometry x="743.31" y="474.0300000000001" width="118.11" height="125.984" as="geometry" />
        </mxCell>
        <mxCell id="m4RewTG6IQld1wpyNN1v-32" value="GLIDE" style="rounded=0;whiteSpace=wrap;html=1;strokeWidth=1.1810999999999998;fontSize=18;" parent="1" vertex="1">
          <mxGeometry x="25.589999999999982" y="1208.8699999999997" width="118.11" height="125.984" as="geometry" />
        </mxCell>
        <mxCell id="m4RewTG6IQld1wpyNN1v-35" value="MW" style="rounded=0;whiteSpace=wrap;html=1;strokeWidth=1.1810999999999998;fontSize=18;dashed=1;" parent="1" vertex="1">
          <mxGeometry x="588.09" y="1201.61" width="117.9" height="294.45" as="geometry" />
        </mxCell>
        <mxCell id="m4RewTG6IQld1wpyNN1v-36" value="OCTAVE&lt;br&gt;(5 positions guitar switch)" style="rounded=0;whiteSpace=wrap;html=1;strokeWidth=1.1810999999999998;fontSize=18;dashed=1;" parent="1" vertex="1">
          <mxGeometry x="722.06" y="1201.61" width="117.9" height="294.45" as="geometry" />
        </mxCell>
        <mxCell id="m4RewTG6IQld1wpyNN1v-37" value="HOLD&lt;br&gt;&lt;div&gt;OSC 1&lt;/div&gt;" style="rounded=0;whiteSpace=wrap;html=1;strokeWidth=1.1810999999999998;fontSize=18;" parent="1" vertex="1">
          <mxGeometry x="287.4" y="1208.87" width="117.6" height="70.13" as="geometry" />
        </mxCell>
        <mxCell id="m4RewTG6IQld1wpyNN1v-38" value="(0 / +1 / +2)&lt;br&gt;KEY SPLIT" style="rounded=0;whiteSpace=wrap;html=1;strokeWidth=1.1810999999999998;fontSize=18;" parent="1" vertex="1">
          <mxGeometry x="154.99999999999977" y="1352.9999999999993" width="118.11" height="125.984" as="geometry" />
        </mxCell>
        <mxCell id="m4RewTG6IQld1wpyNN1v-39" value="" style="endArrow=none;html=1;rounded=0;strokeWidth=1.9685;dashed=1;dashPattern=1 4;" parent="1" edge="1">
          <mxGeometry width="50" height="50" relative="1" as="geometry">
            <mxPoint y="1181" as="sourcePoint" />
            <mxPoint x="1772" y="1181" as="targetPoint" />
          </mxGeometry>
        </mxCell>
        <mxCell id="m4RewTG6IQld1wpyNN1v-73" value="Модуляция хранится в табле 4 (источники) на 4 (получатели)" style="rounded=0;whiteSpace=wrap;html=1;strokeWidth=1.1810999999999998;fontSize=18;" parent="1" vertex="1">
          <mxGeometry x="619.06" y="866.14" width="530.94" height="188.86" as="geometry" />
        </mxCell>
        <mxCell id="xWX6AHxLNLRqpK4tOp0E-5" value="(1+2 / 1 / 2)&lt;br&gt;DEST" style="rounded=0;whiteSpace=wrap;html=1;strokeWidth=1.1810999999999998;fontSize=18;" parent="1" vertex="1">
          <mxGeometry x="25.9999999999998" y="1352.9999999999995" width="118.11" height="125.984" as="geometry" />
        </mxCell>
        <mxCell id="xWX6AHxLNLRqpK4tOp0E-8" value="SIZE" style="rounded=0;whiteSpace=wrap;html=1;strokeWidth=1.1810999999999998;fontSize=18;" parent="1" vertex="1">
          <mxGeometry x="1627.8899999999994" y="232.28000000000006" width="118.11" height="125.984" as="geometry" />
        </mxCell>
        <mxCell id="xWX6AHxLNLRqpK4tOp0E-9" value="DRY" style="rounded=0;whiteSpace=wrap;html=1;strokeWidth=1.1810999999999998;fontSize=18;" parent="1" vertex="1">
          <mxGeometry x="1344.4199999999996" y="231.74000000000007" width="118.11" height="125.984" as="geometry" />
        </mxCell>
        <mxCell id="xWX6AHxLNLRqpK4tOp0E-10" value="HIGH" style="rounded=0;whiteSpace=wrap;html=1;strokeWidth=1.1810999999999998;fontSize=18;" parent="1" vertex="1">
          <mxGeometry x="1486.1599999999996" y="27.02000000000006" width="118.11" height="125.984" as="geometry" />
        </mxCell>
        <mxCell id="xWX6AHxLNLRqpK4tOp0E-11" value="DECAY" style="rounded=0;whiteSpace=wrap;html=1;strokeWidth=1.1810999999999998;fontSize=18;" parent="1" vertex="1">
          <mxGeometry x="1633.7899999999995" y="27.019999999999865" width="118.11" height="125.984" as="geometry" />
        </mxCell>
        <mxCell id="xWX6AHxLNLRqpK4tOp0E-12" value="WET" style="rounded=0;whiteSpace=wrap;html=1;strokeWidth=1.1810999999999998;fontSize=18;" parent="1" vertex="1">
          <mxGeometry x="1344.4199999999996" y="27.01999999999988" width="118.11" height="125.984" as="geometry" />
        </mxCell>
        <mxCell id="xWX6AHxLNLRqpK4tOp0E-13" value="LOW" style="rounded=0;whiteSpace=wrap;html=1;strokeWidth=1.1810999999999998;fontSize=18;" parent="1" vertex="1">
          <mxGeometry x="1486.1599999999996" y="232.27999999999986" width="118.11" height="125.984" as="geometry" />
        </mxCell>
        <mxCell id="8TTZSuKu-VtuvrujYmn4-5" value="(M / F / R)&lt;div&gt;SOURCE&lt;/div&gt;" style="rounded=0;whiteSpace=wrap;html=1;strokeWidth=1.1810999999999998;fontSize=18;" parent="1" vertex="1">
          <mxGeometry x="39.46999999999983" y="610.23" width="118.11" height="125.984" as="geometry" />
        </mxCell>
        <mxCell id="56mNvcB_yV8vKIjIocQw-1" value="CUT" style="rounded=0;whiteSpace=wrap;html=1;strokeWidth=1.1810999999999998;fontSize=18;" parent="1" vertex="1">
          <mxGeometry x="39.469999999999914" y="452.04999999999984" width="118.11" height="125.984" as="geometry" />
        </mxCell>
        <mxCell id="56mNvcB_yV8vKIjIocQw-2" value="RESONANCE" style="rounded=0;whiteSpace=wrap;html=1;strokeWidth=1.1810999999999998;fontSize=18;" parent="1" vertex="1">
          <mxGeometry x="452.7499999999998" y="452.0499999999999" width="118.11" height="125.984" as="geometry" />
        </mxCell>
        <mxCell id="xokh4Ez91sBqfJbft43O-6" value="(Потенциометр 1&amp;gt;2 / 0 / 2&amp;gt;1)" style="rounded=0;whiteSpace=wrap;html=1;strokeWidth=1.1810999999999998;fontSize=18;" parent="1" vertex="1">
          <mxGeometry x="236.21999999999997" y="311.02000000000004" width="118.11" height="125.984" as="geometry" />
        </mxCell>
        <mxCell id="wlH6y_KVvPXo0IShCjxc-3" value="(1+2 / 1 / 2)&lt;br&gt;DEST" style="rounded=0;whiteSpace=wrap;html=1;strokeWidth=1.1810999999999998;fontSize=18;" parent="1" vertex="1">
          <mxGeometry x="155.9999999999998" y="1207.9999999999995" width="118.11" height="125.984" as="geometry" />
        </mxCell>
        <mxCell id="wlH6y_KVvPXo0IShCjxc-5" value="HOLD&lt;br&gt;&lt;div&gt;NOISE&lt;/div&gt;" style="rounded=0;whiteSpace=wrap;html=1;strokeWidth=1.1810999999999998;fontSize=18;" parent="1" vertex="1">
          <mxGeometry x="286.89" y="1410.27" width="118.11" height="68.71" as="geometry" />
        </mxCell>
        <mxCell id="8wi24MFOJ5Ws7uHCbMtL-1" value="&lt;div&gt;1&amp;gt;2&lt;/div&gt;&lt;div&gt;&amp;nbsp;2&amp;gt;1&lt;/div&gt;&lt;div&gt;off&lt;/div&gt;" style="rounded=0;whiteSpace=wrap;html=1;strokeWidth=1.1810999999999998;fontSize=18;" parent="1" vertex="1">
          <mxGeometry x="40.22999999999999" y="311.02" width="97.57" height="125.98" as="geometry" />
        </mxCell>
        <mxCell id="8wi24MFOJ5Ws7uHCbMtL-3" value="&lt;div&gt;FM&lt;/div&gt;" style="rounded=0;whiteSpace=wrap;html=1;strokeWidth=1.1810999999999998;fontSize=18;" parent="1" vertex="1">
          <mxGeometry x="322.83" y="385.82" width="70.87" height="51.18" as="geometry" />
        </mxCell>
        <mxCell id="8wi24MFOJ5Ws7uHCbMtL-4" value="SYNC" style="rounded=0;whiteSpace=wrap;html=1;strokeWidth=1.1810999999999998;fontSize=18;" parent="1" vertex="1">
          <mxGeometry x="98.33999999999995" y="385.82" width="70.87" height="51.18" as="geometry" />
        </mxCell>
        <mxCell id="8wi24MFOJ5Ws7uHCbMtL-5" value="WIDTH" style="rounded=0;whiteSpace=wrap;html=1;strokeWidth=1.1810999999999998;fontSize=18;" parent="1" vertex="1">
          <mxGeometry x="429.13" y="169.29000000000002" width="141.732" height="141.732" as="geometry" />
        </mxCell>
        <mxCell id="8wi24MFOJ5Ws7uHCbMtL-7" value="FREEZE" style="rounded=0;whiteSpace=wrap;html=1;strokeWidth=1.1810999999999998;fontSize=18;" parent="1" vertex="1">
          <mxGeometry x="1436.9899999999998" y="153.00000000000003" width="78.74" height="78.74" as="geometry" />
        </mxCell>
        <mxCell id="8wi24MFOJ5Ws7uHCbMtL-8" value="CLEAR" style="rounded=0;whiteSpace=wrap;html=1;strokeWidth=1.1810999999999998;fontSize=18;" parent="1" vertex="1">
          <mxGeometry x="1580.9999999999998" y="153" width="78.74" height="78.74" as="geometry" />
        </mxCell>
        <mxCell id="8wi24MFOJ5Ws7uHCbMtL-19" value="S" style="rounded=0;whiteSpace=wrap;html=1;strokeWidth=1.1810999999999998;fontSize=18;" parent="1" vertex="1">
          <mxGeometry x="1486.1599999999994" y="640.9100000000001" width="118.11" height="125.984" as="geometry" />
        </mxCell>
        <mxCell id="8wi24MFOJ5Ws7uHCbMtL-20" value="R" style="rounded=0;whiteSpace=wrap;html=1;strokeWidth=1.1810999999999998;fontSize=18;" parent="1" vertex="1">
          <mxGeometry x="1627.8899999999994" y="640.9100000000001" width="118.11" height="125.984" as="geometry" />
        </mxCell>
        <mxCell id="8wi24MFOJ5Ws7uHCbMtL-21" value="A" style="rounded=0;whiteSpace=wrap;html=1;strokeWidth=1.1810999999999998;fontSize=18;" parent="1" vertex="1">
          <mxGeometry x="1202.6999999999994" y="640.9100000000001" width="118.11" height="125.984" as="geometry" />
        </mxCell>
        <mxCell id="8wi24MFOJ5Ws7uHCbMtL-22" value="D" style="rounded=0;whiteSpace=wrap;html=1;strokeWidth=1.1810999999999998;fontSize=18;" parent="1" vertex="1">
          <mxGeometry x="1344.4299999999994" y="640.9100000000001" width="118.11" height="125.984" as="geometry" />
        </mxCell>
        <mxCell id="IwCc5_oQlovpXZIAPk43-2" style="edgeStyle=orthogonalEdgeStyle;rounded=0;orthogonalLoop=1;jettySize=auto;html=1;exitX=0;exitY=0.5;exitDx=0;exitDy=0;entryX=1;entryY=0.5;entryDx=0;entryDy=0;strokeWidth=1.9685;endArrow=none;startFill=0;" parent="1" source="8wi24MFOJ5Ws7uHCbMtL-24" target="8wi24MFOJ5Ws7uHCbMtL-27" edge="1">
          <mxGeometry relative="1" as="geometry" />
        </mxCell>
        <mxCell id="8wi24MFOJ5Ws7uHCbMtL-24" value="WIDTH" style="rounded=0;whiteSpace=wrap;html=1;strokeWidth=1.1810999999999998;fontSize=18;" parent="1" vertex="1">
          <mxGeometry x="1488.1799999999996" y="1023.6200000000001" width="118.11" height="125.984" as="geometry" />
        </mxCell>
        <mxCell id="8wi24MFOJ5Ws7uHCbMtL-25" value="FREQUENCY" style="rounded=0;whiteSpace=wrap;html=1;strokeWidth=1.1810999999999998;fontSize=18;" parent="1" vertex="1">
          <mxGeometry x="1633.7899999999997" y="1023.62" width="118.11" height="125.984" as="geometry" />
        </mxCell>
        <mxCell id="8wi24MFOJ5Ws7uHCbMtL-26" value="WAVE" style="rounded=0;whiteSpace=wrap;html=1;strokeWidth=1.1810999999999998;fontSize=18;" parent="1" vertex="1">
          <mxGeometry x="1208.5999999999997" y="1023.62" width="118.11" height="125.984" as="geometry" />
        </mxCell>
        <mxCell id="8wi24MFOJ5Ws7uHCbMtL-27" value="SQ" style="rounded=0;whiteSpace=wrap;html=1;strokeWidth=1.1810999999999998;fontSize=18;" parent="1" vertex="1">
          <mxGeometry x="1350.3299999999995" y="1023.62" width="118.11" height="125.984" as="geometry" />
        </mxCell>
        <mxCell id="8wi24MFOJ5Ws7uHCbMtL-33" value="ENV 2&lt;div&gt;P.MOD&lt;br&gt;CC 2&lt;/div&gt;LFO CROSS" style="rounded=0;whiteSpace=wrap;html=1;strokeWidth=1.1810999999999998;fontSize=18;" parent="1" vertex="1">
          <mxGeometry x="762.82" y="905.51" width="106.3" height="76.24" as="geometry" />
        </mxCell>
        <mxCell id="8wi24MFOJ5Ws7uHCbMtL-34" value="ENV 1&lt;br&gt;MW&lt;br&gt;CC 1&lt;br&gt;EVCLID" style="rounded=0;whiteSpace=wrap;html=1;strokeWidth=1.1810999999999998;fontSize=18;" parent="1" vertex="1">
          <mxGeometry x="619.06" y="931.63" width="106.3" height="76.24" as="geometry" />
        </mxCell>
        <mxCell id="8wi24MFOJ5Ws7uHCbMtL-36" value="LFO 1&lt;br&gt;CV 1&lt;br&gt;CC 3&lt;br&gt;&amp;nbsp;ARPEGIO" style="rounded=0;whiteSpace=wrap;html=1;strokeWidth=1.1810999999999998;fontSize=18;" parent="1" vertex="1">
          <mxGeometry x="904.55" y="936.1300000000002" width="106.3" height="45.62" as="geometry" />
        </mxCell>
        <mxCell id="8wi24MFOJ5Ws7uHCbMtL-37" value="LFO 2&lt;br&gt;CV 2&lt;br&gt;CC 4&lt;br&gt;SAMPLER" style="rounded=0;whiteSpace=wrap;html=1;strokeWidth=1.1810999999999998;fontSize=18;" parent="1" vertex="1">
          <mxGeometry x="1043.6999999999996" y="936.1300000000002" width="106.3" height="45.62" as="geometry" />
        </mxCell>
        <mxCell id="8wi24MFOJ5Ws7uHCbMtL-38" value="PW" style="rounded=0;whiteSpace=wrap;html=1;strokeWidth=1.1810999999999998;fontSize=18;dashed=1;" parent="1" vertex="1">
          <mxGeometry x="452.75" y="1201" width="118.11" height="295.06" as="geometry" />
        </mxCell>
        <mxCell id="56mNvcB_yV8vKIjIocQw-4" value="" style="rounded=0;whiteSpace=wrap;html=1;movable=1;resizable=1;rotatable=1;deletable=1;editable=1;locked=0;connectable=1;strokeWidth=1.9685;" parent="1" vertex="1">
          <mxGeometry x="885.82" width="295.27" height="787.4" as="geometry" />
        </mxCell>
        <mxCell id="m4RewTG6IQld1wpyNN1v-1" value="&lt;div&gt;CUT&lt;/div&gt;" style="rounded=0;whiteSpace=wrap;html=1;strokeWidth=1.1810999999999998;fontSize=18;movable=1;resizable=1;rotatable=1;deletable=1;editable=1;locked=0;connectable=1;" parent="1" vertex="1">
          <mxGeometry x="942.8999999999999" y="176.62000000000006" width="181.102" height="181.102" as="geometry" />
        </mxCell>
        <mxCell id="m4RewTG6IQld1wpyNN1v-76" value="MODE&lt;br&gt;(VCV Classic: lp / KFM-35: clear, mid, heavy, 303)" style="rounded=0;whiteSpace=wrap;html=1;strokeWidth=1.1810999999999998;fontSize=18;direction=south;movable=1;resizable=1;rotatable=1;deletable=1;editable=1;locked=0;connectable=1;" parent="1" vertex="1">
          <mxGeometry x="905.73" y="669.29" width="255.49" height="90.54" as="geometry" />
        </mxCell>
        <mxCell id="d05ju5goZMEUmhi3or16-1" value="VOLUME" style="rounded=0;whiteSpace=wrap;html=1;strokeWidth=1.1810999999999998;fontSize=18;movable=1;resizable=1;rotatable=1;deletable=1;editable=1;locked=0;connectable=1;" parent="1" vertex="1">
          <mxGeometry x="1036.73" y="27.56999999999998" width="118.11" height="125.984" as="geometry" />
        </mxCell>
        <mxCell id="8wi24MFOJ5Ws7uHCbMtL-6" value="DRIVE" style="rounded=0;whiteSpace=wrap;html=1;strokeWidth=1.1810999999999998;fontSize=18;movable=1;resizable=1;rotatable=1;deletable=1;editable=1;locked=0;connectable=1;" parent="1" vertex="1">
          <mxGeometry x="904.5499999999997" y="388.94999999999993" width="118.11" height="125.984" as="geometry" />
        </mxCell>
        <mxCell id="8wi24MFOJ5Ws7uHCbMtL-39" value="(HP / BP / LP)&lt;div&gt;FILTER&lt;/div&gt;" style="rounded=0;whiteSpace=wrap;html=1;strokeWidth=1.1810999999999998;fontSize=18;" parent="1" vertex="1">
          <mxGeometry x="314.9599999999998" y="610.23" width="118.11" height="125.984" as="geometry" />
        </mxCell>
        <mxCell id="8wi24MFOJ5Ws7uHCbMtL-40" value="CUT" style="rounded=0;whiteSpace=wrap;html=1;strokeWidth=1.1810999999999998;fontSize=18;" parent="1" vertex="1">
          <mxGeometry x="181.09999999999994" y="610.2299999999998" width="118.11" height="125.984" as="geometry" />
        </mxCell>
        <mxCell id="8wi24MFOJ5Ws7uHCbMtL-41" value="RESONANCE" style="rounded=0;whiteSpace=wrap;html=1;strokeWidth=1.1810999999999998;fontSize=18;" parent="1" vertex="1">
          <mxGeometry x="452.7499999999999" y="610.2299999999999" width="118.11" height="125.984" as="geometry" />
        </mxCell>
        <mxCell id="8wi24MFOJ5Ws7uHCbMtL-42" value="(HP / BP / LP)&lt;div&gt;FILTER&lt;/div&gt;" style="rounded=0;whiteSpace=wrap;html=1;strokeWidth=1.1810999999999998;fontSize=18;" parent="1" vertex="1">
          <mxGeometry x="248.03000000000003" y="452.05" width="118.11" height="125.98" as="geometry" />
        </mxCell>
        <mxCell id="8wi24MFOJ5Ws7uHCbMtL-45" value="REC&lt;br&gt;(CLEAR)" style="rounded=0;whiteSpace=wrap;html=1;strokeWidth=1.1810999999999998;fontSize=18;" parent="1" vertex="1">
          <mxGeometry x="39.04" y="736.21" width="118.53" height="125.98" as="geometry" />
        </mxCell>
        <mxCell id="8wi24MFOJ5Ws7uHCbMtL-47" value="PLAY&lt;br&gt;(PAUSE)" style="rounded=0;whiteSpace=wrap;html=1;strokeWidth=1.1810999999999998;fontSize=18;" parent="1" vertex="1">
          <mxGeometry x="181" y="736.21" width="118.21" height="125.98" as="geometry" />
        </mxCell>
        <mxCell id="8wi24MFOJ5Ws7uHCbMtL-48" value="START" style="rounded=0;whiteSpace=wrap;html=1;strokeWidth=1.1810999999999998;fontSize=18;" parent="1" vertex="1">
          <mxGeometry x="314.9399999999998" y="736.2099999999999" width="118.11" height="125.984" as="geometry" />
        </mxCell>
        <mxCell id="8wi24MFOJ5Ws7uHCbMtL-49" value="STOP" style="rounded=0;whiteSpace=wrap;html=1;strokeWidth=1.1810999999999998;fontSize=18;" parent="1" vertex="1">
          <mxGeometry x="452.7499999999999" y="736.2099999999999" width="118.11" height="125.984" as="geometry" />
        </mxCell>
        <mxCell id="8wi24MFOJ5Ws7uHCbMtL-51" value="MOD MATRIX, OSC, REC, SEQ" style="rounded=0;whiteSpace=wrap;html=1;strokeWidth=1.1810999999999998;fontSize=18;" parent="1" vertex="1">
          <mxGeometry x="617" y="806" width="531.94" height="45.1" as="geometry" />
        </mxCell>
        <mxCell id="8wi24MFOJ5Ws7uHCbMtL-52" value="2" style="rounded=0;whiteSpace=wrap;html=1;strokeWidth=1.1810999999999998;fontSize=18;" parent="1" vertex="1">
          <mxGeometry x="762.8199999999999" y="1003.8700000000002" width="106.3" height="45.62" as="geometry" />
        </mxCell>
        <mxCell id="8wi24MFOJ5Ws7uHCbMtL-53" value="1" style="rounded=0;whiteSpace=wrap;html=1;strokeWidth=1.1810999999999998;fontSize=18;" parent="1" vertex="1">
          <mxGeometry x="619.06" y="1003.8700000000002" width="106.3" height="45.62" as="geometry" />
        </mxCell>
        <mxCell id="8wi24MFOJ5Ws7uHCbMtL-54" value="3" style="rounded=0;whiteSpace=wrap;html=1;strokeWidth=1.1810999999999998;fontSize=18;" parent="1" vertex="1">
          <mxGeometry x="904.55" y="1003.8700000000002" width="106.3" height="45.62" as="geometry" />
        </mxCell>
        <mxCell id="8wi24MFOJ5Ws7uHCbMtL-55" value="4" style="rounded=0;whiteSpace=wrap;html=1;strokeWidth=1.1810999999999998;fontSize=18;" parent="1" vertex="1">
          <mxGeometry x="1042.6399999999996" y="1003.8700000000002" width="106.3" height="45.62" as="geometry" />
        </mxCell>
        <mxCell id="8wi24MFOJ5Ws7uHCbMtL-57" value="BUTTON" style="rounded=0;whiteSpace=wrap;html=1;strokeWidth=1.1810999999999998;fontSize=18;" parent="1" vertex="1">
          <mxGeometry x="762.8199999999999" y="1074.3900000000003" width="106.3" height="45.62" as="geometry" />
        </mxCell>
        <mxCell id="8wi24MFOJ5Ws7uHCbMtL-58" value="BUTTON" style="rounded=0;whiteSpace=wrap;html=1;strokeWidth=1.1810999999999998;fontSize=18;" parent="1" vertex="1">
          <mxGeometry x="619.06" y="1074.3900000000003" width="106.3" height="45.62" as="geometry" />
        </mxCell>
        <mxCell id="8wi24MFOJ5Ws7uHCbMtL-59" value="BUTTON" style="rounded=0;whiteSpace=wrap;html=1;strokeWidth=1.1810999999999998;fontSize=18;" parent="1" vertex="1">
          <mxGeometry x="904.55" y="1074.3900000000003" width="106.3" height="45.62" as="geometry" />
        </mxCell>
        <mxCell id="8wi24MFOJ5Ws7uHCbMtL-60" value="BUTTON" style="rounded=0;whiteSpace=wrap;html=1;strokeWidth=1.1810999999999998;fontSize=18;" parent="1" vertex="1">
          <mxGeometry x="1043.6999999999996" y="1074.3900000000003" width="106.3" height="45.62" as="geometry" />
        </mxCell>
        <mxCell id="8wi24MFOJ5Ws7uHCbMtL-63" value="&amp;gt;" style="rounded=0;whiteSpace=wrap;html=1;strokeWidth=1.1810999999999998;fontSize=18;" parent="1" vertex="1">
          <mxGeometry x="762.8199999999999" y="1115.38" width="106.3" height="45.62" as="geometry" />
        </mxCell>
        <mxCell id="8wi24MFOJ5Ws7uHCbMtL-64" value="&amp;lt;" style="rounded=0;whiteSpace=wrap;html=1;strokeWidth=1.1810999999999998;fontSize=18;" parent="1" vertex="1">
          <mxGeometry x="619.06" y="1115.38" width="106.3" height="45.62" as="geometry" />
        </mxCell>
        <mxCell id="8wi24MFOJ5Ws7uHCbMtL-66" value="BACK" style="rounded=0;whiteSpace=wrap;html=1;strokeWidth=1.1810999999999998;fontSize=18;" parent="1" vertex="1">
          <mxGeometry x="1043.6999999999996" y="1115.38" width="106.3" height="45.62" as="geometry" />
        </mxCell>
        <mxCell id="8wi24MFOJ5Ws7uHCbMtL-67" value="EDIT" style="rounded=0;whiteSpace=wrap;html=1;strokeWidth=1.1810999999999998;fontSize=18;" parent="1" vertex="1">
          <mxGeometry x="762.8199999999999" y="866.1400000000002" width="106.3" height="45.62" as="geometry" />
        </mxCell>
        <mxCell id="8wi24MFOJ5Ws7uHCbMtL-68" value="NEW" style="rounded=0;whiteSpace=wrap;html=1;strokeWidth=1.1810999999999998;fontSize=18;" parent="1" vertex="1">
          <mxGeometry x="619.06" y="866.1400000000002" width="106.3" height="45.62" as="geometry" />
        </mxCell>
        <mxCell id="8wi24MFOJ5Ws7uHCbMtL-69" value="CLEAR" style="rounded=0;whiteSpace=wrap;html=1;strokeWidth=1.1810999999999998;fontSize=18;" parent="1" vertex="1">
          <mxGeometry x="904.55" y="866.1400000000002" width="106.3" height="45.62" as="geometry" />
        </mxCell>
        <mxCell id="8wi24MFOJ5Ws7uHCbMtL-70" value="OSC / REC / SEQ" style="rounded=0;whiteSpace=wrap;html=1;strokeWidth=1.1810999999999998;fontSize=18;" parent="1" vertex="1">
          <mxGeometry x="1042.6399999999994" y="866.1400000000002" width="106.3" height="45.62" as="geometry" />
        </mxCell>
        <mxCell id="w7xi124JPFb4Iuvyt2l8-9" value="KEYBOARD KEYS" style="rounded=0;whiteSpace=wrap;html=1;strokeWidth=1.1810999999999998;fontSize=18;dashed=1;movable=1;resizable=1;rotatable=1;deletable=1;editable=1;locked=0;connectable=1;" parent="1" vertex="1">
          <mxGeometry x="848.95" y="1201" width="922.7" height="295.06" as="geometry" />
        </mxCell>
        <mxCell id="w7xi124JPFb4Iuvyt2l8-10" value="MW" style="rounded=0;whiteSpace=wrap;html=1;strokeWidth=1.1810999999999998;fontSize=18;" parent="1" vertex="1">
          <mxGeometry x="155.61" y="1496.67" width="117.9" height="291.34" as="geometry" />
        </mxCell>
        <mxCell id="w7xi124JPFb4Iuvyt2l8-11" value="OCTAVE&lt;br&gt;(5 positions guitar switch)" style="rounded=0;whiteSpace=wrap;html=1;strokeWidth=1.1810999999999998;fontSize=18;" parent="1" vertex="1">
          <mxGeometry x="289.5799999999999" y="1496.67" width="117.9" height="290.73" as="geometry" />
        </mxCell>
        <mxCell id="w7xi124JPFb4Iuvyt2l8-12" value="PW" style="rounded=0;whiteSpace=wrap;html=1;strokeWidth=1.1810999999999998;fontSize=18;" parent="1" vertex="1">
          <mxGeometry x="25.589999999999975" y="1496.06" width="118.11" height="291.34" as="geometry" />
        </mxCell>
        <mxCell id="m4RewTG6IQld1wpyNN1v-54" value="RESONANCE" style="rounded=0;whiteSpace=wrap;html=1;strokeWidth=1.1810999999999998;fontSize=18;movable=1;resizable=1;rotatable=1;deletable=1;editable=1;locked=0;connectable=1;" parent="1" vertex="1">
          <mxGeometry x="1043.7" y="385.82" width="118.11" height="125.984" as="geometry" />
        </mxCell>
        <mxCell id="gBDPEbCBvgzt7-z5L_b_-1" value="MIX" style="rounded=0;whiteSpace=wrap;html=1;strokeWidth=1.1810999999999998;fontSize=18;movable=1;resizable=1;rotatable=1;deletable=1;editable=1;locked=0;connectable=1;" parent="1" vertex="1">
          <mxGeometry x="905.7299999999999" y="527.56" width="118.11" height="125.984" as="geometry" />
        </mxCell>
        <mxCell id="gBDPEbCBvgzt7-z5L_b_-3" value="&lt;div&gt;OSCILOSCOPE&lt;/div&gt;/ WATERFALL&lt;br&gt;/ SPECTR" style="rounded=0;whiteSpace=wrap;html=1;strokeWidth=1.1810999999999998;fontSize=18;movable=1;resizable=1;rotatable=1;deletable=1;editable=1;locked=0;connectable=1;fillColor=#6a00ff;fontColor=#ffffff;strokeColor=#3700CC;" parent="1" vertex="1">
          <mxGeometry x="647.6299999999999" y="27.570000000000096" width="181.102" height="181.102" as="geometry" />
        </mxCell>
        <mxCell id="gBDPEbCBvgzt7-z5L_b_-8" value="L" style="rounded=0;whiteSpace=wrap;html=1;" parent="1" vertex="1">
          <mxGeometry x="1297.1899999999998" y="640.91" width="24.56" height="24.409399999999998" as="geometry" />
        </mxCell>
        <mxCell id="gBDPEbCBvgzt7-z5L_b_-9" value="L" style="rounded=0;whiteSpace=wrap;html=1;" parent="1" vertex="1">
          <mxGeometry x="1437.9799999999998" y="640.91" width="24.56" height="24.409399999999998" as="geometry" />
        </mxCell>
        <mxCell id="gBDPEbCBvgzt7-z5L_b_-10" value="L" style="rounded=0;whiteSpace=wrap;html=1;" parent="1" vertex="1">
          <mxGeometry x="1579.7099999999996" y="640.91" width="24.56" height="24.409399999999998" as="geometry" />
        </mxCell>
        <mxCell id="gBDPEbCBvgzt7-z5L_b_-11" value="L" style="rounded=0;whiteSpace=wrap;html=1;" parent="1" vertex="1">
          <mxGeometry x="1721.4399999999994" y="640.91" width="24.56" height="24.409399999999998" as="geometry" />
        </mxCell>
        <mxCell id="gBDPEbCBvgzt7-z5L_b_-12" value="L" style="rounded=0;whiteSpace=wrap;html=1;" parent="1" vertex="1">
          <mxGeometry x="1711.6499999999994" y="818.89" width="24.56" height="24.409399999999998" as="geometry" />
        </mxCell>
        <mxCell id="gBDPEbCBvgzt7-z5L_b_-13" value="L" style="rounded=0;whiteSpace=wrap;html=1;" parent="1" vertex="1">
          <mxGeometry x="1727.3399999999995" y="1023.62" width="24.56" height="24.409399999999998" as="geometry" />
        </mxCell>
        <mxCell id="gbtdaO8nGlUaZbrBjqpk-1" value="HPF&lt;br&gt;CUTOFF" style="rounded=0;whiteSpace=wrap;html=1;strokeWidth=1.1810999999999998;fontSize=18;movable=1;resizable=1;rotatable=1;deletable=1;editable=1;locked=0;connectable=1;" parent="1" vertex="1">
          <mxGeometry x="1043.6999999999998" y="527.56" width="118.11" height="125.984" as="geometry" />
        </mxCell>
        <mxCell id="gbtdaO8nGlUaZbrBjqpk-2" value="L" style="rounded=0;whiteSpace=wrap;html=1;" parent="1" vertex="1">
          <mxGeometry x="1578.7599999999993" y="818.89" width="24.56" height="24.409399999999998" as="geometry" />
        </mxCell>
        <mxCell id="gbtdaO8nGlUaZbrBjqpk-6" value="GAIN" style="rounded=0;whiteSpace=wrap;html=1;strokeWidth=1.1810999999999998;fontSize=18;movable=1;resizable=1;rotatable=1;deletable=1;editable=1;locked=0;connectable=1;" parent="1" vertex="1">
          <mxGeometry x="904.5499999999997" y="27.019999999999982" width="118.11" height="125.984" as="geometry" />
        </mxCell>
        <mxCell id="G2be6syp2w9wlqAolsrQ-1" value="FEEDBACK" style="rounded=0;whiteSpace=wrap;html=1;strokeWidth=1.1810999999999998;fontSize=18;" parent="1" vertex="1">
          <mxGeometry x="1202.6999999999996" y="27.559999999999874" width="118.11" height="125.984" as="geometry" />
        </mxCell>
        <mxCell id="G2be6syp2w9wlqAolsrQ-2" value="DRY / WET" style="rounded=0;whiteSpace=wrap;html=1;strokeWidth=1.1810999999999998;fontSize=18;" parent="1" vertex="1">
          <mxGeometry x="1202.6999999999996" y="232.28999999999988" width="118.11" height="125.984" as="geometry" />
        </mxCell>
        <mxCell id="G2be6syp2w9wlqAolsrQ-3" value="TAP&lt;br&gt;TEMPO" style="rounded=0;whiteSpace=wrap;html=1;strokeWidth=1.1810999999999998;fontSize=18;" parent="1" vertex="1">
          <mxGeometry x="1228.2899999999995" y="153.55000000000004" width="78.74" height="78.74" as="geometry" />
        </mxCell>
        <mxCell id="JVRs23YW-IqXZZvFPZ2R-1" value="&lt;div&gt;OSC-1&lt;/div&gt;&lt;div&gt;&lt;br&gt;&lt;/div&gt;&lt;div&gt;&lt;br&gt;&lt;/div&gt;" style="rounded=0;whiteSpace=wrap;html=1;strokeWidth=1.1810999999999998;fontSize=18;fillColor=#6a00ff;fontColor=#ffffff;strokeColor=#3700CC;" parent="1" vertex="1">
          <mxGeometry x="220.14" y="902.03" width="71.63" height="121.59" as="geometry" />
        </mxCell>
        <mxCell id="JVRs23YW-IqXZZvFPZ2R-2" value="&lt;div&gt;OSC-2&lt;/div&gt;&lt;div&gt;&lt;br&gt;&lt;/div&gt;&lt;div&gt;&lt;br&gt;&lt;/div&gt;" style="rounded=0;whiteSpace=wrap;html=1;strokeWidth=1.1810999999999998;fontSize=18;fillColor=#6a00ff;fontColor=#ffffff;strokeColor=#3700CC;" parent="1" vertex="1">
          <mxGeometry x="291.77" y="902.03" width="78.63" height="121.59" as="geometry" />
        </mxCell>
        <mxCell id="gBDPEbCBvgzt7-z5L_b_-14" value="MONO&lt;br&gt;POLY" style="rounded=0;whiteSpace=wrap;html=1;strokeWidth=1.1810999999999998;fontSize=18;fillColor=#6a00ff;fontColor=#ffffff;strokeColor=#3700CC;" parent="1" vertex="1">
          <mxGeometry x="255.95999999999998" y="957.4" width="78.64" height="66.22" as="geometry" />
        </mxCell>
        <mxCell id="JVRs23YW-IqXZZvFPZ2R-3" value="HOLD&lt;br&gt;&lt;div&gt;OSC 2&lt;/div&gt;" style="rounded=0;whiteSpace=wrap;html=1;strokeWidth=1.1810999999999998;fontSize=18;" parent="1" vertex="1">
          <mxGeometry x="286.89" y="1312.96" width="117" height="71.13" as="geometry" />
        </mxCell>
        <mxCell id="m4RewTG6IQld1wpyNN1v-15" value="OSC-2&lt;div&gt;&lt;br/&gt;&lt;/div&gt;" style="rounded=0;whiteSpace=wrap;html=1;strokeWidth=1.1810999999999998;fontSize=18;" parent="1" vertex="1">
          <mxGeometry x="173.65999999999974" y="1023.6199999999998" width="118.11" height="125.984" as="geometry" />
        </mxCell>
        <mxCell id="JVRs23YW-IqXZZvFPZ2R-9" value="" style="shape=table;startSize=0;container=1;collapsible=0;childLayout=tableLayout;fontSize=16;fillColor=none;strokeColor=default;" parent="1" vertex="1">
          <mxGeometry x="599" y="600.01" width="262.42" height="157.48" as="geometry" />
        </mxCell>
        <mxCell id="JVRs23YW-IqXZZvFPZ2R-10" value="" style="shape=tableRow;horizontal=0;startSize=0;swimlaneHead=0;swimlaneBody=0;strokeColor=inherit;top=0;left=0;bottom=0;right=0;collapsible=0;dropTarget=0;fillColor=none;points=[[0,0.5],[1,0.5]];portConstraint=eastwest;fontSize=16;" parent="JVRs23YW-IqXZZvFPZ2R-9" vertex="1">
          <mxGeometry width="262.42" height="39" as="geometry" />
        </mxCell>
        <mxCell id="JVRs23YW-IqXZZvFPZ2R-11" value="" style="shape=partialRectangle;html=1;whiteSpace=wrap;connectable=0;strokeColor=inherit;overflow=hidden;fillColor=none;top=0;left=0;bottom=0;right=0;pointerEvents=1;fontSize=16;" parent="JVRs23YW-IqXZZvFPZ2R-10" vertex="1">
          <mxGeometry width="36" height="39" as="geometry">
            <mxRectangle width="36" height="39" as="alternateBounds" />
          </mxGeometry>
        </mxCell>
        <mxCell id="JVRs23YW-IqXZZvFPZ2R-12" value="LOOPER" style="shape=partialRectangle;html=1;whiteSpace=wrap;connectable=0;strokeColor=inherit;overflow=hidden;fillColor=none;top=0;left=0;bottom=0;right=0;pointerEvents=1;fontSize=16;" parent="JVRs23YW-IqXZZvFPZ2R-10" vertex="1">
          <mxGeometry x="36" width="104" height="39" as="geometry">
            <mxRectangle width="104" height="39" as="alternateBounds" />
          </mxGeometry>
        </mxCell>
        <mxCell id="JVRs23YW-IqXZZvFPZ2R-13" value="EXTERNAL" style="shape=partialRectangle;html=1;whiteSpace=wrap;connectable=0;strokeColor=inherit;overflow=hidden;fillColor=none;top=0;left=0;bottom=0;right=0;pointerEvents=1;fontSize=16;" parent="JVRs23YW-IqXZZvFPZ2R-10" vertex="1">
          <mxGeometry x="140" width="122" height="39" as="geometry">
            <mxRectangle width="122" height="39" as="alternateBounds" />
          </mxGeometry>
        </mxCell>
        <mxCell id="JVRs23YW-IqXZZvFPZ2R-14" value="" style="shape=tableRow;horizontal=0;startSize=0;swimlaneHead=0;swimlaneBody=0;strokeColor=inherit;top=0;left=0;bottom=0;right=0;collapsible=0;dropTarget=0;fillColor=none;points=[[0,0.5],[1,0.5]];portConstraint=eastwest;fontSize=16;" parent="JVRs23YW-IqXZZvFPZ2R-9" vertex="1">
          <mxGeometry y="39" width="262.42" height="40" as="geometry" />
        </mxCell>
        <mxCell id="JVRs23YW-IqXZZvFPZ2R-15" value="F" style="shape=partialRectangle;html=1;whiteSpace=wrap;connectable=0;strokeColor=inherit;overflow=hidden;fillColor=none;top=0;left=0;bottom=0;right=0;pointerEvents=1;fontSize=16;" parent="JVRs23YW-IqXZZvFPZ2R-14" vertex="1">
          <mxGeometry width="36" height="40" as="geometry">
            <mxRectangle width="36" height="40" as="alternateBounds" />
          </mxGeometry>
        </mxCell>
        <mxCell id="JVRs23YW-IqXZZvFPZ2R-16" value="0 / 100" style="shape=partialRectangle;html=1;whiteSpace=wrap;connectable=0;strokeColor=inherit;overflow=hidden;fillColor=none;top=0;left=0;bottom=0;right=0;pointerEvents=1;fontSize=16;" parent="JVRs23YW-IqXZZvFPZ2R-14" vertex="1">
          <mxGeometry x="36" width="104" height="40" as="geometry">
            <mxRectangle width="104" height="40" as="alternateBounds" />
          </mxGeometry>
        </mxCell>
        <mxCell id="JVRs23YW-IqXZZvFPZ2R-17" value="" style="shape=partialRectangle;html=1;whiteSpace=wrap;connectable=0;strokeColor=inherit;overflow=hidden;fillColor=none;top=0;left=0;bottom=0;right=0;pointerEvents=1;fontSize=16;" parent="JVRs23YW-IqXZZvFPZ2R-14" vertex="1">
          <mxGeometry x="140" width="122" height="40" as="geometry">
            <mxRectangle width="122" height="40" as="alternateBounds" />
          </mxGeometry>
        </mxCell>
        <mxCell id="JVRs23YW-IqXZZvFPZ2R-18" value="" style="shape=tableRow;horizontal=0;startSize=0;swimlaneHead=0;swimlaneBody=0;strokeColor=inherit;top=0;left=0;bottom=0;right=0;collapsible=0;dropTarget=0;fillColor=none;points=[[0,0.5],[1,0.5]];portConstraint=eastwest;fontSize=16;" parent="JVRs23YW-IqXZZvFPZ2R-9" vertex="1">
          <mxGeometry y="79" width="262.42" height="39" as="geometry" />
        </mxCell>
        <mxCell id="JVRs23YW-IqXZZvFPZ2R-19" value="D" style="shape=partialRectangle;html=1;whiteSpace=wrap;connectable=0;strokeColor=inherit;overflow=hidden;fillColor=none;top=0;left=0;bottom=0;right=0;pointerEvents=1;fontSize=16;" parent="JVRs23YW-IqXZZvFPZ2R-18" vertex="1">
          <mxGeometry width="36" height="39" as="geometry">
            <mxRectangle width="36" height="39" as="alternateBounds" />
          </mxGeometry>
        </mxCell>
        <mxCell id="JVRs23YW-IqXZZvFPZ2R-20" value="" style="shape=partialRectangle;html=1;whiteSpace=wrap;connectable=0;strokeColor=inherit;overflow=hidden;fillColor=none;top=0;left=0;bottom=0;right=0;pointerEvents=1;fontSize=16;dashed=1;dashPattern=1 2;" parent="JVRs23YW-IqXZZvFPZ2R-18" vertex="1">
          <mxGeometry x="36" width="104" height="39" as="geometry">
            <mxRectangle width="104" height="39" as="alternateBounds" />
          </mxGeometry>
        </mxCell>
        <mxCell id="JVRs23YW-IqXZZvFPZ2R-21" value="" style="shape=partialRectangle;html=1;whiteSpace=wrap;connectable=0;strokeColor=inherit;overflow=hidden;fillColor=none;top=0;left=0;bottom=0;right=0;pointerEvents=1;fontSize=16;" parent="JVRs23YW-IqXZZvFPZ2R-18" vertex="1">
          <mxGeometry x="140" width="122" height="39" as="geometry">
            <mxRectangle width="122" height="39" as="alternateBounds" />
          </mxGeometry>
        </mxCell>
        <mxCell id="JVRs23YW-IqXZZvFPZ2R-22" style="shape=tableRow;horizontal=0;startSize=0;swimlaneHead=0;swimlaneBody=0;strokeColor=inherit;top=0;left=0;bottom=0;right=0;collapsible=0;dropTarget=0;fillColor=none;points=[[0,0.5],[1,0.5]];portConstraint=eastwest;fontSize=16;" parent="JVRs23YW-IqXZZvFPZ2R-9" vertex="1">
          <mxGeometry y="118" width="262.42" height="39" as="geometry" />
        </mxCell>
        <mxCell id="JVRs23YW-IqXZZvFPZ2R-23" value="R" style="shape=partialRectangle;html=1;whiteSpace=wrap;connectable=0;strokeColor=inherit;overflow=hidden;fillColor=none;top=0;left=0;bottom=0;right=0;pointerEvents=1;fontSize=16;" parent="JVRs23YW-IqXZZvFPZ2R-22" vertex="1">
          <mxGeometry width="36" height="39" as="geometry">
            <mxRectangle width="36" height="39" as="alternateBounds" />
          </mxGeometry>
        </mxCell>
        <mxCell id="JVRs23YW-IqXZZvFPZ2R-24" style="shape=partialRectangle;html=1;whiteSpace=wrap;connectable=0;strokeColor=inherit;overflow=hidden;fillColor=none;top=0;left=0;bottom=0;right=0;pointerEvents=1;fontSize=16;" parent="JVRs23YW-IqXZZvFPZ2R-22" vertex="1">
          <mxGeometry x="36" width="104" height="39" as="geometry">
            <mxRectangle width="104" height="39" as="alternateBounds" />
          </mxGeometry>
        </mxCell>
        <mxCell id="JVRs23YW-IqXZZvFPZ2R-25" style="shape=partialRectangle;html=1;whiteSpace=wrap;connectable=0;strokeColor=inherit;overflow=hidden;fillColor=none;top=0;left=0;bottom=0;right=0;pointerEvents=1;fontSize=16;" parent="JVRs23YW-IqXZZvFPZ2R-22" vertex="1">
          <mxGeometry x="140" width="122" height="39" as="geometry">
            <mxRectangle width="122" height="39" as="alternateBounds" />
          </mxGeometry>
        </mxCell>
        <mxCell id="8wi24MFOJ5Ws7uHCbMtL-28" value="NOISE&lt;br&gt;SPEED" style="rounded=0;whiteSpace=wrap;html=1;strokeWidth=1.1810999999999998;fontSize=18;" parent="1" vertex="1">
          <mxGeometry x="1488.1799999999996" y="806" width="118.11" height="125.984" as="geometry" />
        </mxCell>
        <mxCell id="8wi24MFOJ5Ws7uHCbMtL-29" value="FREQUENCY" style="rounded=0;whiteSpace=wrap;html=1;strokeWidth=1.1810999999999998;fontSize=18;" parent="1" vertex="1">
          <mxGeometry x="1629.9099999999992" y="806" width="118.11" height="125.984" as="geometry" />
        </mxCell>
        <mxCell id="8wi24MFOJ5Ws7uHCbMtL-30" value="WAVE" style="rounded=0;whiteSpace=wrap;html=1;strokeWidth=1.1810999999999998;fontSize=18;" parent="1" vertex="1">
          <mxGeometry x="1208.5999999999995" y="805.65" width="118.11" height="125.984" as="geometry" />
        </mxCell>
        <mxCell id="8wi24MFOJ5Ws7uHCbMtL-31" value="NOISE&lt;br&gt;RANGE" style="rounded=0;whiteSpace=wrap;html=1;strokeWidth=1.1810999999999998;fontSize=18;" parent="1" vertex="1">
          <mxGeometry x="1350.3299999999997" y="805.65" width="118.11" height="125.984" as="geometry" />
        </mxCell>
        <mxCell id="8wi24MFOJ5Ws7uHCbMtL-71" value="Retrig / Free" style="rounded=0;whiteSpace=wrap;html=1;strokeWidth=1.1810999999999998;fontSize=18;" parent="1" vertex="1">
          <mxGeometry x="1356.23" y="946.9400000000002" width="106.3" height="45.62" as="geometry" />
        </mxCell>
        <mxCell id="8wi24MFOJ5Ws7uHCbMtL-72" value="Oneshot" style="rounded=0;whiteSpace=wrap;html=1;strokeWidth=1.1810999999999998;fontSize=18;" parent="1" vertex="1">
          <mxGeometry x="1210.6200000000001" y="946.94" width="106.3" height="45.62" as="geometry" />
        </mxCell>
        <mxCell id="8wi24MFOJ5Ws7uHCbMtL-74" value="Mono / Poly" style="rounded=0;whiteSpace=wrap;html=1;strokeWidth=1.1810999999999998;fontSize=18;" parent="1" vertex="1">
          <mxGeometry x="1492.0699999999995" y="946.94" width="106.3" height="45.62" as="geometry" />
        </mxCell>
        <mxCell id="8wi24MFOJ5Ws7uHCbMtL-75" value="Sync" style="rounded=0;whiteSpace=wrap;html=1;strokeWidth=1.1810999999999998;fontSize=18;" parent="1" vertex="1">
          <mxGeometry x="1639.6999999999998" y="946.94" width="106.3" height="45.62" as="geometry" />
        </mxCell>
        <mxCell id="JVRs23YW-IqXZZvFPZ2R-28" value="&lt;div&gt;(1 / 2)&lt;/div&gt;&lt;div&gt;SUB&lt;/div&gt;" style="rounded=0;whiteSpace=wrap;html=1;strokeWidth=1.1810999999999998;fontSize=18;" parent="1" vertex="1">
          <mxGeometry x="472.53999999999996" y="311.02" width="98.99" height="125.98" as="geometry" />
        </mxCell>
        <mxCell id="JVRs23YW-IqXZZvFPZ2R-29" value="L" style="rounded=0;whiteSpace=wrap;html=1;" parent="1" vertex="1">
          <mxGeometry x="1282.4699999999998" y="153.55" width="24.56" height="24.409399999999998" as="geometry" />
        </mxCell>
        <mxCell id="m4RewTG6IQld1wpyNN1v-42" value="S" style="rounded=0;whiteSpace=wrap;html=1;strokeWidth=1.1810999999999998;fontSize=18;" parent="1" vertex="1">
          <mxGeometry x="1488.1799999999996" y="414.19" width="118.11" height="125.984" as="geometry" />
        </mxCell>
        <mxCell id="m4RewTG6IQld1wpyNN1v-44" value="R" style="rounded=0;whiteSpace=wrap;html=1;strokeWidth=1.1810999999999998;fontSize=18;" parent="1" vertex="1">
          <mxGeometry x="1629.9099999999996" y="414.19" width="118.11" height="125.984" as="geometry" />
        </mxCell>
        <mxCell id="m4RewTG6IQld1wpyNN1v-46" value="A" style="rounded=0;whiteSpace=wrap;html=1;strokeWidth=1.1810999999999998;fontSize=18;" parent="1" vertex="1">
          <mxGeometry x="1204.7199999999996" y="414.19" width="118.11" height="125.984" as="geometry" />
        </mxCell>
        <mxCell id="m4RewTG6IQld1wpyNN1v-48" value="D" style="rounded=0;whiteSpace=wrap;html=1;strokeWidth=1.1810999999999998;fontSize=18;" parent="1" vertex="1">
          <mxGeometry x="1346.4499999999996" y="414.19" width="118.11" height="125.984" as="geometry" />
        </mxCell>
        <mxCell id="8wi24MFOJ5Ws7uHCbMtL-9" value="Retrig (Gate / Trig?)" style="rounded=0;whiteSpace=wrap;html=1;strokeWidth=1.1810999999999998;fontSize=18;" parent="1" vertex="1">
          <mxGeometry x="1352.35" y="556.73" width="106.3" height="45.62" as="geometry" />
        </mxCell>
        <mxCell id="8wi24MFOJ5Ws7uHCbMtL-10" value="Loop" style="rounded=0;whiteSpace=wrap;html=1;strokeWidth=1.1810999999999998;fontSize=18;" parent="1" vertex="1">
          <mxGeometry x="1210.62" y="556.73" width="106.3" height="45.62" as="geometry" />
        </mxCell>
        <mxCell id="8wi24MFOJ5Ws7uHCbMtL-12" value="Mono / Poly" style="rounded=0;whiteSpace=wrap;html=1;strokeWidth=1.1810999999999998;fontSize=18;" parent="1" vertex="1">
          <mxGeometry x="1494.08" y="556.73" width="106.3" height="45.62" as="geometry" />
        </mxCell>
        <mxCell id="8wi24MFOJ5Ws7uHCbMtL-13" value="Speed" style="rounded=0;whiteSpace=wrap;html=1;strokeWidth=1.1810999999999998;fontSize=18;" parent="1" vertex="1">
          <mxGeometry x="1635.8099999999997" y="556.73" width="106.3" height="45.62" as="geometry" />
        </mxCell>
        <mxCell id="gBDPEbCBvgzt7-z5L_b_-4" value="L" style="rounded=0;whiteSpace=wrap;html=1;" parent="1" vertex="1">
          <mxGeometry x="1299.21" y="414.19" width="24.56" height="24.409399999999998" as="geometry" />
        </mxCell>
        <mxCell id="gBDPEbCBvgzt7-z5L_b_-5" value="L" style="rounded=0;whiteSpace=wrap;html=1;" parent="1" vertex="1">
          <mxGeometry x="1440" y="414.19" width="24.56" height="24.409399999999998" as="geometry" />
        </mxCell>
        <mxCell id="gBDPEbCBvgzt7-z5L_b_-6" value="L" style="rounded=0;whiteSpace=wrap;html=1;" parent="1" vertex="1">
          <mxGeometry x="1581.7299999999998" y="414.19" width="24.56" height="24.409399999999998" as="geometry" />
        </mxCell>
        <mxCell id="gBDPEbCBvgzt7-z5L_b_-7" value="L" style="rounded=0;whiteSpace=wrap;html=1;" parent="1" vertex="1">
          <mxGeometry x="1723.4599999999996" y="414.19" width="24.56" height="24.409399999999998" as="geometry" />
        </mxCell>
        <mxCell id="JVRs23YW-IqXZZvFPZ2R-31" value="" style="endArrow=none;html=1;rounded=0;strokeWidth=1.9685;" parent="1" edge="1">
          <mxGeometry width="50" height="50" relative="1" as="geometry">
            <mxPoint x="1201" y="619" as="sourcePoint" />
            <mxPoint x="1744" y="621" as="targetPoint" />
          </mxGeometry>
        </mxCell>
        <mxCell id="JVRs23YW-IqXZZvFPZ2R-32" value="" style="endArrow=none;html=1;rounded=0;strokeWidth=1.9685;" parent="1" edge="1">
          <mxGeometry width="50" height="50" relative="1" as="geometry">
            <mxPoint x="39.99999999999983" y="444" as="sourcePoint" />
            <mxPoint x="571" y="444" as="targetPoint" />
          </mxGeometry>
        </mxCell>
        <mxCell id="JVRs23YW-IqXZZvFPZ2R-33" value="" style="endArrow=none;html=1;rounded=0;strokeWidth=1.9685;" parent="1" edge="1">
          <mxGeometry width="50" height="50" relative="1" as="geometry">
            <mxPoint x="1208.6" y="1007.87" as="sourcePoint" />
            <mxPoint x="1751.6" y="1009.87" as="targetPoint" />
            <Array as="points">
              <mxPoint x="1499.58" y="1010.25" />
            </Array>
          </mxGeometry>
        </mxCell>
        <mxCell id="JVRs23YW-IqXZZvFPZ2R-35" value="" style="endArrow=none;html=1;rounded=0;strokeWidth=1.9685;" parent="1" edge="1">
          <mxGeometry width="50" height="50" relative="1" as="geometry">
            <mxPoint x="1332" y="357" as="sourcePoint" />
            <mxPoint x="1332" y="28" as="targetPoint" />
          </mxGeometry>
        </mxCell>
        <mxCell id="JVRs23YW-IqXZZvFPZ2R-36" value="" style="endArrow=none;html=1;rounded=0;strokeWidth=1.9685;" parent="1" edge="1">
          <mxGeometry width="50" height="50" relative="1" as="geometry">
            <mxPoint x="618" y="240" as="sourcePoint" />
            <mxPoint x="862" y="240" as="targetPoint" />
          </mxGeometry>
        </mxCell>
        <mxCell id="JVRs23YW-IqXZZvFPZ2R-37" value="L" style="rounded=0;whiteSpace=wrap;html=1;" parent="1" vertex="1">
          <mxGeometry x="1723.4599999999994" y="806" width="24.56" height="24.409399999999998" as="geometry" />
        </mxCell>
        <mxCell id="TrSweGONWDlrP58tqkvg-1" value="L" style="rounded=0;whiteSpace=wrap;html=1;" parent="1" vertex="1">
          <mxGeometry x="1581.7299999999993" y="805.65" width="24.56" height="24.409399999999998" as="geometry" />
        </mxCell>
        <mxCell id="IwCc5_oQlovpXZIAPk43-1" value="" style="endArrow=none;html=1;rounded=0;strokeWidth=1.9685;exitX=1;exitY=0.5;exitDx=0;exitDy=0;" parent="1" source="m4RewTG6IQld1wpyNN1v-4" edge="1">
          <mxGeometry width="50" height="50" relative="1" as="geometry">
            <mxPoint x="394" y="240" as="sourcePoint" />
            <mxPoint x="429.13" y="239.66" as="targetPoint" />
          </mxGeometry>
        </mxCell>
        <mxCell id="IwCc5_oQlovpXZIAPk43-3" value="L" style="rounded=0;whiteSpace=wrap;html=1;" parent="1" vertex="1">
          <mxGeometry x="133.01999999999975" y="736.2099999999999" width="24.56" height="24.409399999999998" as="geometry" />
        </mxCell>
        <mxCell id="IwCc5_oQlovpXZIAPk43-4" value="L" style="rounded=0;whiteSpace=wrap;html=1;" parent="1" vertex="1">
          <mxGeometry x="274.64999999999975" y="736.2099999999999" width="24.56" height="24.409399999999998" as="geometry" />
        </mxCell>
        <mxCell id="IwCc5_oQlovpXZIAPk43-6" value="" style="endArrow=none;html=1;rounded=0;strokeWidth=1.9685;exitX=1;exitY=0.5;exitDx=0;exitDy=0;" parent="1" source="m4RewTG6IQld1wpyNN1v-32" edge="1">
          <mxGeometry width="50" height="50" relative="1" as="geometry">
            <mxPoint x="-376.00000000000017" y="1270.63" as="sourcePoint" />
            <mxPoint x="156" y="1272" as="targetPoint" />
          </mxGeometry>
        </mxCell>
        <mxCell id="IwCc5_oQlovpXZIAPk43-7" value="" style="endArrow=none;html=1;rounded=0;strokeWidth=1.9685;entryX=0.5;entryY=1;entryDx=0;entryDy=0;exitX=0.5;exitY=0;exitDx=0;exitDy=0;" parent="1" source="w7xi124JPFb4Iuvyt2l8-12" target="xWX6AHxLNLRqpK4tOp0E-5" edge="1">
          <mxGeometry width="50" height="50" relative="1" as="geometry">
            <mxPoint x="-349.90000000000015" y="1086.0900000000001" as="sourcePoint" />
            <mxPoint x="181.10000000000002" y="1086.0900000000001" as="targetPoint" />
          </mxGeometry>
        </mxCell>
        <mxCell id="IwCc5_oQlovpXZIAPk43-8" value="OCT/NOTE" style="rounded=0;whiteSpace=wrap;html=1;strokeWidth=1.1810999999999998;fontSize=18;" parent="1" vertex="1">
          <mxGeometry x="229.76" y="1098.42" width="131.02" height="51.18" as="geometry" />
        </mxCell>
      </root>
    </mxGraphModel>
  </diagram>
  <diagram id="hYCjqKuX2Sxi1TYyctN2" name="Page-2">
    <mxGraphModel dx="1284" dy="770" grid="1" gridSize="10" guides="1" tooltips="1" connect="1" arrows="1" fold="1" page="1" pageScale="1" pageWidth="1776" pageHeight="1811" math="0" shadow="0">
      <root>
        <mxCell id="0" />
        <mxCell id="1" parent="0" />
        <mxCell id="dd9DeJBiaPYzzE5yhDiK-1" value="" style="rounded=0;whiteSpace=wrap;html=1;movable=1;resizable=1;rotatable=1;deletable=1;editable=1;locked=0;connectable=1;strokeWidth=0.3937;" parent="1" vertex="1">
          <mxGeometry width="590.55" height="393.7" as="geometry" />
        </mxCell>
        <mxCell id="dd9DeJBiaPYzzE5yhDiK-2" value="" style="rounded=0;whiteSpace=wrap;html=1;aspect=fixed;strokeWidth=0.3937;" parent="1" vertex="1">
          <mxGeometry x="59.055" y="31.496" width="90.551" height="90.551" as="geometry" />
        </mxCell>
        <mxCell id="_KZ5xfw4OuiuiUjqCUxF-1" value="" style="rounded=0;whiteSpace=wrap;html=1;aspect=fixed;strokeWidth=0.3937;" vertex="1" parent="1">
          <mxGeometry x="440.95399999999995" y="31.496" width="90.551" height="90.551" as="geometry" />
        </mxCell>
        <mxCell id="_KZ5xfw4OuiuiUjqCUxF-3" value="" style="rounded=0;whiteSpace=wrap;html=1;aspect=fixed;strokeWidth=0.3937;" vertex="1" parent="1">
          <mxGeometry x="186.22" y="31.496" width="90.551" height="90.551" as="geometry" />
        </mxCell>
        <mxCell id="_KZ5xfw4OuiuiUjqCUxF-4" value="" style="rounded=0;whiteSpace=wrap;html=1;aspect=fixed;strokeWidth=0.3937;" vertex="1" parent="1">
          <mxGeometry x="313.79" y="31.496" width="90.551" height="90.551" as="geometry" />
        </mxCell>
        <mxCell id="_KZ5xfw4OuiuiUjqCUxF-10" value="" style="rounded=0;whiteSpace=wrap;html=1;strokeWidth=0.3937;" vertex="1" parent="1">
          <mxGeometry x="59.019999999999996" y="133.85999999999999" width="472.5" height="39.37" as="geometry" />
        </mxCell>
        <mxCell id="_KZ5xfw4OuiuiUjqCUxF-13" value="" style="rounded=0;whiteSpace=wrap;html=1;aspect=fixed;strokeWidth=0.3937;" vertex="1" parent="1">
          <mxGeometry x="59.05000000000001" y="236.22" width="90.551" height="90.551" as="geometry" />
        </mxCell>
        <mxCell id="_KZ5xfw4OuiuiUjqCUxF-14" value="" style="rounded=0;whiteSpace=wrap;html=1;aspect=fixed;strokeWidth=0.3937;" vertex="1" parent="1">
          <mxGeometry x="440.9489999999999" y="236.22" width="90.551" height="90.551" as="geometry" />
        </mxCell>
        <mxCell id="_KZ5xfw4OuiuiUjqCUxF-15" value="" style="rounded=0;whiteSpace=wrap;html=1;aspect=fixed;strokeWidth=0.3937;" vertex="1" parent="1">
          <mxGeometry x="186.21499999999997" y="236.22" width="90.551" height="90.551" as="geometry" />
        </mxCell>
        <mxCell id="_KZ5xfw4OuiuiUjqCUxF-16" value="" style="rounded=0;whiteSpace=wrap;html=1;aspect=fixed;strokeWidth=0.3937;" vertex="1" parent="1">
          <mxGeometry x="313.785" y="236.22" width="90.551" height="90.551" as="geometry" />
        </mxCell>
        <mxCell id="_KZ5xfw4OuiuiUjqCUxF-17" value="" style="rounded=0;whiteSpace=wrap;html=1;strokeWidth=0.3937;" vertex="1" parent="1">
          <mxGeometry x="10.004999999999953" y="31.499999999999996" width="39.37" height="137.795" as="geometry" />
        </mxCell>
        <mxCell id="Vj5hB_PHKlJxKNjJofi4-6" value="" style="rounded=0;whiteSpace=wrap;html=1;strokeWidth=0.3937;" vertex="1" parent="1">
          <mxGeometry x="59.05000000000001" y="338.58" width="472.5" height="39.37" as="geometry" />
        </mxCell>
        <mxCell id="vWwfsrf3z7nDjftP-Yg6-1" value="" style="rounded=0;whiteSpace=wrap;html=1;strokeWidth=0.3937;" vertex="1" parent="1">
          <mxGeometry x="78.74" y="173.23" width="51.181" height="51.181" as="geometry" />
        </mxCell>
        <mxCell id="vWwfsrf3z7nDjftP-Yg6-3" value="" style="rounded=0;whiteSpace=wrap;html=1;strokeWidth=0.3937;" vertex="1" parent="1">
          <mxGeometry x="460.64" y="173.23" width="51.181" height="51.181" as="geometry" />
        </mxCell>
        <mxCell id="e2MTIjUZ4DIBRAJPxZr3-1" value="" style="rounded=0;whiteSpace=wrap;html=1;strokeWidth=0.3937;" vertex="1" parent="1">
          <mxGeometry x="333.47" y="173.23" width="51.181" height="51.181" as="geometry" />
        </mxCell>
        <mxCell id="e2MTIjUZ4DIBRAJPxZr3-2" value="" style="rounded=0;whiteSpace=wrap;html=1;strokeWidth=0.3937;" vertex="1" parent="1">
          <mxGeometry x="205.91000000000003" y="173.23" width="51.181" height="51.181" as="geometry" />
        </mxCell>
        <mxCell id="e2MTIjUZ4DIBRAJPxZr3-3" value="" style="rounded=0;whiteSpace=wrap;html=1;strokeWidth=0.3937;" vertex="1" parent="1">
          <mxGeometry x="10" y="236.22" width="39.37" height="137.795" as="geometry" />
        </mxCell>
        <mxCell id="e2MTIjUZ4DIBRAJPxZr3-5" value="" style="endArrow=none;html=1;rounded=0;strokeWidth=0.3937;" edge="1" parent="1">
          <mxGeometry width="50" height="50" relative="1" as="geometry">
            <mxPoint y="230" as="sourcePoint" />
            <mxPoint x="590.55" y="230" as="targetPoint" />
          </mxGeometry>
        </mxCell>
        <mxCell id="e2MTIjUZ4DIBRAJPxZr3-10" value="" style="rounded=0;whiteSpace=wrap;html=1;strokeWidth=0.3937;" vertex="1" parent="1">
          <mxGeometry x="59.019999999999996" y="31.5" width="45.2755" height="45.2755" as="geometry" />
        </mxCell>
        <mxCell id="e2MTIjUZ4DIBRAJPxZr3-12" value="" style="rounded=0;whiteSpace=wrap;html=1;strokeWidth=0.3937;" vertex="1" parent="1">
          <mxGeometry x="104.33" y="76.77" width="45.2755" height="45.2755" as="geometry" />
        </mxCell>
        <mxCell id="e2MTIjUZ4DIBRAJPxZr3-14" value="" style="rounded=0;whiteSpace=wrap;html=1;strokeWidth=0.3937;" vertex="1" parent="1">
          <mxGeometry x="186.20999999999998" y="31.5" width="45.2755" height="45.2755" as="geometry" />
        </mxCell>
        <mxCell id="e2MTIjUZ4DIBRAJPxZr3-16" value="" style="rounded=0;whiteSpace=wrap;html=1;strokeWidth=0.3937;" vertex="1" parent="1">
          <mxGeometry x="231.48999999999998" y="76.76999999999998" width="45.2755" height="45.2755" as="geometry" />
        </mxCell>
        <mxCell id="e2MTIjUZ4DIBRAJPxZr3-18" value="" style="rounded=0;whiteSpace=wrap;html=1;strokeWidth=0.3937;" vertex="1" parent="1">
          <mxGeometry x="313.78999999999996" y="31.5" width="45.2755" height="45.2755" as="geometry" />
        </mxCell>
        <mxCell id="e2MTIjUZ4DIBRAJPxZr3-20" value="" style="rounded=0;whiteSpace=wrap;html=1;strokeWidth=0.3937;" vertex="1" parent="1">
          <mxGeometry x="359.06999999999994" y="76.76999999999998" width="45.2755" height="45.2755" as="geometry" />
        </mxCell>
        <mxCell id="e2MTIjUZ4DIBRAJPxZr3-22" value="" style="rounded=0;whiteSpace=wrap;html=1;strokeWidth=0.3937;" vertex="1" parent="1">
          <mxGeometry x="440.94" y="31.5" width="45.2755" height="45.2755" as="geometry" />
        </mxCell>
        <mxCell id="e2MTIjUZ4DIBRAJPxZr3-24" value="" style="rounded=0;whiteSpace=wrap;html=1;strokeWidth=0.3937;" vertex="1" parent="1">
          <mxGeometry x="486.22" y="76.77" width="45.2755" height="45.2755" as="geometry" />
        </mxCell>
        <mxCell id="e2MTIjUZ4DIBRAJPxZr3-26" value="" style="rounded=0;whiteSpace=wrap;html=1;strokeWidth=0.3937;" vertex="1" parent="1">
          <mxGeometry x="59.049999999999955" y="236.23" width="45.2755" height="45.2755" as="geometry" />
        </mxCell>
        <mxCell id="e2MTIjUZ4DIBRAJPxZr3-29" value="" style="rounded=0;whiteSpace=wrap;html=1;strokeWidth=0.3937;" vertex="1" parent="1">
          <mxGeometry x="104.32999999999993" y="281.5" width="45.2755" height="45.2755" as="geometry" />
        </mxCell>
        <mxCell id="e2MTIjUZ4DIBRAJPxZr3-30" value="" style="rounded=0;whiteSpace=wrap;html=1;strokeWidth=0.3937;" vertex="1" parent="1">
          <mxGeometry x="186.22000000000003" y="236.22" width="45.2755" height="45.2755" as="geometry" />
        </mxCell>
        <mxCell id="e2MTIjUZ4DIBRAJPxZr3-32" value="" style="rounded=0;whiteSpace=wrap;html=1;strokeWidth=0.3937;" vertex="1" parent="1">
          <mxGeometry x="186.22000000000003" y="281.49" width="45.2755" height="45.2755" as="geometry" />
        </mxCell>
        <mxCell id="e2MTIjUZ4DIBRAJPxZr3-33" value="" style="rounded=0;whiteSpace=wrap;html=1;strokeWidth=0.3937;" vertex="1" parent="1">
          <mxGeometry x="231.5" y="281.49" width="45.2755" height="45.2755" as="geometry" />
        </mxCell>
        <mxCell id="e2MTIjUZ4DIBRAJPxZr3-34" value="" style="rounded=0;whiteSpace=wrap;html=1;strokeWidth=0.3937;" vertex="1" parent="1">
          <mxGeometry x="313.78" y="236.23" width="45.2755" height="45.2755" as="geometry" />
        </mxCell>
        <mxCell id="e2MTIjUZ4DIBRAJPxZr3-36" value="" style="rounded=0;whiteSpace=wrap;html=1;strokeWidth=0.3937;" vertex="1" parent="1">
          <mxGeometry x="313.78" y="281.5" width="45.2755" height="45.2755" as="geometry" />
        </mxCell>
        <mxCell id="e2MTIjUZ4DIBRAJPxZr3-37" value="" style="rounded=0;whiteSpace=wrap;html=1;strokeWidth=0.3937;" vertex="1" parent="1">
          <mxGeometry x="359.06000000000006" y="281.5" width="45.2755" height="45.2755" as="geometry" />
        </mxCell>
        <mxCell id="e2MTIjUZ4DIBRAJPxZr3-38" value="" style="rounded=0;whiteSpace=wrap;html=1;strokeWidth=0.3937;" vertex="1" parent="1">
          <mxGeometry x="440.94" y="236.23" width="45.2755" height="45.2755" as="geometry" />
        </mxCell>
        <mxCell id="e2MTIjUZ4DIBRAJPxZr3-41" value="" style="rounded=0;whiteSpace=wrap;html=1;strokeWidth=0.3937;" vertex="1" parent="1">
          <mxGeometry x="486.22" y="281.5" width="45.2755" height="45.2755" as="geometry" />
        </mxCell>
        <mxCell id="e2MTIjUZ4DIBRAJPxZr3-42" value="" style="rounded=0;whiteSpace=wrap;html=1;strokeWidth=0.3937;" vertex="1" parent="1">
          <mxGeometry x="78.74" y="173.23" width="25.5905" height="25.5905" as="geometry" />
        </mxCell>
        <mxCell id="e2MTIjUZ4DIBRAJPxZr3-43" value="" style="rounded=0;whiteSpace=wrap;html=1;strokeWidth=0.3937;" vertex="1" parent="1">
          <mxGeometry x="104.33" y="198.82" width="25.5905" height="25.5905" as="geometry" />
        </mxCell>
        <mxCell id="e2MTIjUZ4DIBRAJPxZr3-44" value="" style="rounded=0;whiteSpace=wrap;html=1;strokeWidth=0.3937;" vertex="1" parent="1">
          <mxGeometry x="205.9" y="173.23" width="25.5905" height="25.5905" as="geometry" />
        </mxCell>
        <mxCell id="e2MTIjUZ4DIBRAJPxZr3-45" value="" style="rounded=0;whiteSpace=wrap;html=1;strokeWidth=0.3937;" vertex="1" parent="1">
          <mxGeometry x="231.49" y="198.82" width="25.5905" height="25.5905" as="geometry" />
        </mxCell>
        <mxCell id="e2MTIjUZ4DIBRAJPxZr3-46" value="" style="rounded=0;whiteSpace=wrap;html=1;strokeWidth=0.3937;" vertex="1" parent="1">
          <mxGeometry x="333.47" y="173.23" width="25.5905" height="25.5905" as="geometry" />
        </mxCell>
        <mxCell id="e2MTIjUZ4DIBRAJPxZr3-47" value="" style="rounded=0;whiteSpace=wrap;html=1;strokeWidth=0.3937;" vertex="1" parent="1">
          <mxGeometry x="359.06" y="198.82" width="25.5905" height="25.5905" as="geometry" />
        </mxCell>
        <mxCell id="e2MTIjUZ4DIBRAJPxZr3-48" value="" style="rounded=0;whiteSpace=wrap;html=1;strokeWidth=0.3937;" vertex="1" parent="1">
          <mxGeometry x="460.64" y="173.23" width="25.5905" height="25.5905" as="geometry" />
        </mxCell>
        <mxCell id="e2MTIjUZ4DIBRAJPxZr3-49" value="" style="rounded=0;whiteSpace=wrap;html=1;strokeWidth=0.3937;" vertex="1" parent="1">
          <mxGeometry x="486.22999999999996" y="198.82" width="25.5905" height="25.5905" as="geometry" />
        </mxCell>
        <mxCell id="e2MTIjUZ4DIBRAJPxZr3-54" value="" style="rounded=0;whiteSpace=wrap;html=1;strokeWidth=0.3937;" vertex="1" parent="1">
          <mxGeometry x="402.97" y="133.85999999999999" width="19.685" height="19.685" as="geometry" />
        </mxCell>
        <mxCell id="e2MTIjUZ4DIBRAJPxZr3-55" value="" style="rounded=0;whiteSpace=wrap;html=1;strokeWidth=0.3937;" vertex="1" parent="1">
          <mxGeometry x="148.22" y="133.86" width="39.37" height="39.37" as="geometry" />
        </mxCell>
        <mxCell id="e2MTIjUZ4DIBRAJPxZr3-57" value="" style="rounded=0;whiteSpace=wrap;html=1;strokeWidth=0.3937;" vertex="1" parent="1">
          <mxGeometry x="148.22" y="338.58000000000004" width="39.37" height="39.37" as="geometry" />
        </mxCell>
        <mxCell id="e2MTIjUZ4DIBRAJPxZr3-58" value="" style="rounded=0;whiteSpace=wrap;html=1;strokeWidth=0.3937;" vertex="1" parent="1">
          <mxGeometry x="275.59000000000003" y="133.86" width="39.37" height="39.37" as="geometry" />
        </mxCell>
        <mxCell id="e2MTIjUZ4DIBRAJPxZr3-61" value="" style="rounded=0;whiteSpace=wrap;html=1;strokeWidth=0.3937;" vertex="1" parent="1">
          <mxGeometry x="275.8" y="338.58" width="39.37" height="39.37" as="geometry" />
        </mxCell>
        <mxCell id="e2MTIjUZ4DIBRAJPxZr3-62" value="" style="rounded=0;whiteSpace=wrap;html=1;strokeWidth=0.3937;" vertex="1" parent="1">
          <mxGeometry x="402.97" y="133.86" width="39.37" height="39.37" as="geometry" />
        </mxCell>
        <mxCell id="e2MTIjUZ4DIBRAJPxZr3-63" value="" style="rounded=0;whiteSpace=wrap;html=1;strokeWidth=0.3937;" vertex="1" parent="1">
          <mxGeometry x="402.97" y="338.58" width="39.37" height="39.37" as="geometry" />
        </mxCell>
        <mxCell id="e2MTIjUZ4DIBRAJPxZr3-65" value="" style="rounded=0;whiteSpace=wrap;html=1;strokeWidth=0.3937;" vertex="1" parent="1">
          <mxGeometry x="402.97" y="133.86" width="19.685" height="19.685" as="geometry" />
        </mxCell>
        <mxCell id="e2MTIjUZ4DIBRAJPxZr3-66" value="" style="rounded=0;whiteSpace=wrap;html=1;strokeWidth=0.3937;" vertex="1" parent="1">
          <mxGeometry x="422.66" y="153.54" width="19.685" height="19.685" as="geometry" />
        </mxCell>
        <mxCell id="e2MTIjUZ4DIBRAJPxZr3-67" value="" style="rounded=0;whiteSpace=wrap;html=1;strokeWidth=0.3937;" vertex="1" parent="1">
          <mxGeometry x="275.59000000000003" y="133.85999999999999" width="19.685" height="19.685" as="geometry" />
        </mxCell>
        <mxCell id="e2MTIjUZ4DIBRAJPxZr3-68" value="" style="rounded=0;whiteSpace=wrap;html=1;strokeWidth=0.3937;" vertex="1" parent="1">
          <mxGeometry x="295.28" y="153.53999999999996" width="19.685" height="19.685" as="geometry" />
        </mxCell>
        <mxCell id="e2MTIjUZ4DIBRAJPxZr3-69" value="" style="rounded=0;whiteSpace=wrap;html=1;strokeWidth=0.3937;" vertex="1" parent="1">
          <mxGeometry x="148.22000000000003" y="133.86" width="19.685" height="19.685" as="geometry" />
        </mxCell>
        <mxCell id="e2MTIjUZ4DIBRAJPxZr3-70" value="" style="rounded=0;whiteSpace=wrap;html=1;strokeWidth=0.3937;" vertex="1" parent="1">
          <mxGeometry x="167.91000000000003" y="153.53999999999996" width="19.685" height="19.685" as="geometry" />
        </mxCell>
        <mxCell id="e2MTIjUZ4DIBRAJPxZr3-71" value="" style="rounded=0;whiteSpace=wrap;html=1;strokeWidth=0.3937;" vertex="1" parent="1">
          <mxGeometry x="402.97" y="338.58000000000004" width="19.685" height="19.685" as="geometry" />
        </mxCell>
        <mxCell id="e2MTIjUZ4DIBRAJPxZr3-72" value="" style="rounded=0;whiteSpace=wrap;html=1;strokeWidth=0.3937;" vertex="1" parent="1">
          <mxGeometry x="422.65999999999997" y="358.26" width="19.685" height="19.685" as="geometry" />
        </mxCell>
        <mxCell id="e2MTIjUZ4DIBRAJPxZr3-73" value="" style="rounded=0;whiteSpace=wrap;html=1;strokeWidth=0.3937;" vertex="1" parent="1">
          <mxGeometry x="275.59000000000003" y="338.59000000000003" width="19.685" height="19.685" as="geometry" />
        </mxCell>
        <mxCell id="e2MTIjUZ4DIBRAJPxZr3-74" value="" style="rounded=0;whiteSpace=wrap;html=1;strokeWidth=0.3937;" vertex="1" parent="1">
          <mxGeometry x="295.28" y="358.27" width="19.685" height="19.685" as="geometry" />
        </mxCell>
        <mxCell id="e2MTIjUZ4DIBRAJPxZr3-75" value="" style="rounded=0;whiteSpace=wrap;html=1;strokeWidth=0.3937;" vertex="1" parent="1">
          <mxGeometry x="148.23" y="338.59000000000003" width="19.685" height="19.685" as="geometry" />
        </mxCell>
        <mxCell id="e2MTIjUZ4DIBRAJPxZr3-76" value="" style="rounded=0;whiteSpace=wrap;html=1;strokeWidth=0.3937;" vertex="1" parent="1">
          <mxGeometry x="167.91999999999993" y="358.27" width="19.685" height="19.685" as="geometry" />
        </mxCell>
        <mxCell id="e2MTIjUZ4DIBRAJPxZr3-77" value="" style="rounded=0;whiteSpace=wrap;html=1;movable=1;resizable=1;rotatable=1;deletable=1;editable=1;locked=0;connectable=1;strokeWidth=0.3937;" vertex="1" parent="1">
          <mxGeometry x="590.55" width="590.55" height="393.7" as="geometry" />
        </mxCell>
        <mxCell id="e2MTIjUZ4DIBRAJPxZr3-78" value="" style="rounded=0;whiteSpace=wrap;html=1;aspect=fixed;strokeWidth=0.3937;" vertex="1" parent="1">
          <mxGeometry x="649.6049999999999" y="31.49599999999998" width="90.551" height="90.551" as="geometry" />
        </mxCell>
        <mxCell id="e2MTIjUZ4DIBRAJPxZr3-79" value="" style="rounded=0;whiteSpace=wrap;html=1;aspect=fixed;strokeWidth=0.3937;" vertex="1" parent="1">
          <mxGeometry x="1031.504" y="31.49599999999998" width="90.551" height="90.551" as="geometry" />
        </mxCell>
        <mxCell id="e2MTIjUZ4DIBRAJPxZr3-80" value="" style="rounded=0;whiteSpace=wrap;html=1;aspect=fixed;strokeWidth=0.3937;" vertex="1" parent="1">
          <mxGeometry x="776.77" y="31.49599999999998" width="90.551" height="90.551" as="geometry" />
        </mxCell>
        <mxCell id="e2MTIjUZ4DIBRAJPxZr3-81" value="" style="rounded=0;whiteSpace=wrap;html=1;aspect=fixed;strokeWidth=0.3937;" vertex="1" parent="1">
          <mxGeometry x="904.3399999999999" y="31.49599999999998" width="90.551" height="90.551" as="geometry" />
        </mxCell>
        <mxCell id="e2MTIjUZ4DIBRAJPxZr3-82" value="" style="rounded=0;whiteSpace=wrap;html=1;strokeWidth=0.3937;" vertex="1" parent="1">
          <mxGeometry x="649.5699999999999" y="133.86" width="472.5" height="39.37" as="geometry" />
        </mxCell>
        <mxCell id="e2MTIjUZ4DIBRAJPxZr3-83" value="" style="rounded=0;whiteSpace=wrap;html=1;aspect=fixed;strokeWidth=0.3937;" vertex="1" parent="1">
          <mxGeometry x="649.5999999999999" y="236.22000000000003" width="90.551" height="90.551" as="geometry" />
        </mxCell>
        <mxCell id="e2MTIjUZ4DIBRAJPxZr3-84" value="" style="rounded=0;whiteSpace=wrap;html=1;aspect=fixed;strokeWidth=0.3937;" vertex="1" parent="1">
          <mxGeometry x="1031.4989999999998" y="236.22000000000003" width="90.551" height="90.551" as="geometry" />
        </mxCell>
        <mxCell id="e2MTIjUZ4DIBRAJPxZr3-85" value="" style="rounded=0;whiteSpace=wrap;html=1;aspect=fixed;strokeWidth=0.3937;" vertex="1" parent="1">
          <mxGeometry x="776.7649999999999" y="236.22000000000003" width="90.551" height="90.551" as="geometry" />
        </mxCell>
        <mxCell id="e2MTIjUZ4DIBRAJPxZr3-86" value="" style="rounded=0;whiteSpace=wrap;html=1;aspect=fixed;strokeWidth=0.3937;" vertex="1" parent="1">
          <mxGeometry x="904.335" y="236.22000000000003" width="90.551" height="90.551" as="geometry" />
        </mxCell>
        <mxCell id="e2MTIjUZ4DIBRAJPxZr3-87" value="" style="rounded=0;whiteSpace=wrap;html=1;strokeWidth=0.3937;" vertex="1" parent="1">
          <mxGeometry x="600.555" y="31.5" width="39.37" height="137.795" as="geometry" />
        </mxCell>
        <mxCell id="e2MTIjUZ4DIBRAJPxZr3-88" value="" style="rounded=0;whiteSpace=wrap;html=1;strokeWidth=0.3937;" vertex="1" parent="1">
          <mxGeometry x="649.5999999999999" y="338.5799999999999" width="472.5" height="39.37" as="geometry" />
        </mxCell>
        <mxCell id="e2MTIjUZ4DIBRAJPxZr3-89" value="" style="rounded=0;whiteSpace=wrap;html=1;strokeWidth=0.3937;" vertex="1" parent="1">
          <mxGeometry x="669.29" y="173.23000000000002" width="51.181" height="51.181" as="geometry" />
        </mxCell>
        <mxCell id="e2MTIjUZ4DIBRAJPxZr3-90" value="" style="rounded=0;whiteSpace=wrap;html=1;strokeWidth=0.3937;" vertex="1" parent="1">
          <mxGeometry x="1051.1899999999998" y="173.23000000000002" width="51.181" height="51.181" as="geometry" />
        </mxCell>
        <mxCell id="e2MTIjUZ4DIBRAJPxZr3-91" value="" style="rounded=0;whiteSpace=wrap;html=1;strokeWidth=0.3937;" vertex="1" parent="1">
          <mxGeometry x="924.02" y="173.23000000000002" width="51.181" height="51.181" as="geometry" />
        </mxCell>
        <mxCell id="e2MTIjUZ4DIBRAJPxZr3-92" value="" style="rounded=0;whiteSpace=wrap;html=1;strokeWidth=0.3937;" vertex="1" parent="1">
          <mxGeometry x="796.46" y="173.23000000000002" width="51.181" height="51.181" as="geometry" />
        </mxCell>
        <mxCell id="e2MTIjUZ4DIBRAJPxZr3-93" value="" style="rounded=0;whiteSpace=wrap;html=1;strokeWidth=0.3937;" vertex="1" parent="1">
          <mxGeometry x="600.55" y="236.22000000000003" width="39.37" height="137.795" as="geometry" />
        </mxCell>
        <mxCell id="e2MTIjUZ4DIBRAJPxZr3-94" value="" style="endArrow=none;html=1;rounded=0;strokeWidth=0.3937;" edge="1" parent="1">
          <mxGeometry width="50" height="50" relative="1" as="geometry">
            <mxPoint x="590.55" y="230" as="sourcePoint" />
            <mxPoint x="1181.1" y="230" as="targetPoint" />
          </mxGeometry>
        </mxCell>
        <mxCell id="e2MTIjUZ4DIBRAJPxZr3-95" value="" style="rounded=0;whiteSpace=wrap;html=1;strokeWidth=0.3937;" vertex="1" parent="1">
          <mxGeometry x="649.5699999999999" y="31.5" width="45.2755" height="45.2755" as="geometry" />
        </mxCell>
        <mxCell id="e2MTIjUZ4DIBRAJPxZr3-96" value="" style="rounded=0;whiteSpace=wrap;html=1;strokeWidth=0.3937;" vertex="1" parent="1">
          <mxGeometry x="694.88" y="76.76999999999998" width="45.2755" height="45.2755" as="geometry" />
        </mxCell>
        <mxCell id="e2MTIjUZ4DIBRAJPxZr3-97" value="" style="rounded=0;whiteSpace=wrap;html=1;strokeWidth=0.3937;" vertex="1" parent="1">
          <mxGeometry x="776.76" y="31.5" width="45.2755" height="45.2755" as="geometry" />
        </mxCell>
        <mxCell id="e2MTIjUZ4DIBRAJPxZr3-98" value="" style="rounded=0;whiteSpace=wrap;html=1;strokeWidth=0.3937;" vertex="1" parent="1">
          <mxGeometry x="822.04" y="76.76999999999998" width="45.2755" height="45.2755" as="geometry" />
        </mxCell>
        <mxCell id="e2MTIjUZ4DIBRAJPxZr3-99" value="" style="rounded=0;whiteSpace=wrap;html=1;strokeWidth=0.3937;" vertex="1" parent="1">
          <mxGeometry x="904.3399999999999" y="31.5" width="45.2755" height="45.2755" as="geometry" />
        </mxCell>
        <mxCell id="e2MTIjUZ4DIBRAJPxZr3-100" value="" style="rounded=0;whiteSpace=wrap;html=1;strokeWidth=0.3937;" vertex="1" parent="1">
          <mxGeometry x="949.6199999999999" y="76.76999999999998" width="45.2755" height="45.2755" as="geometry" />
        </mxCell>
        <mxCell id="e2MTIjUZ4DIBRAJPxZr3-101" value="" style="rounded=0;whiteSpace=wrap;html=1;strokeWidth=0.3937;" vertex="1" parent="1">
          <mxGeometry x="1031.49" y="31.5" width="45.2755" height="45.2755" as="geometry" />
        </mxCell>
        <mxCell id="e2MTIjUZ4DIBRAJPxZr3-102" value="" style="rounded=0;whiteSpace=wrap;html=1;strokeWidth=0.3937;" vertex="1" parent="1">
          <mxGeometry x="1076.77" y="76.76999999999998" width="45.2755" height="45.2755" as="geometry" />
        </mxCell>
        <mxCell id="e2MTIjUZ4DIBRAJPxZr3-103" value="" style="rounded=0;whiteSpace=wrap;html=1;strokeWidth=0.3937;" vertex="1" parent="1">
          <mxGeometry x="649.5999999999999" y="236.23000000000002" width="45.2755" height="45.2755" as="geometry" />
        </mxCell>
        <mxCell id="e2MTIjUZ4DIBRAJPxZr3-104" value="" style="rounded=0;whiteSpace=wrap;html=1;strokeWidth=0.3937;" vertex="1" parent="1">
          <mxGeometry x="694.8799999999999" y="281.5" width="45.2755" height="45.2755" as="geometry" />
        </mxCell>
        <mxCell id="e2MTIjUZ4DIBRAJPxZr3-105" value="" style="rounded=0;whiteSpace=wrap;html=1;strokeWidth=0.3937;" vertex="1" parent="1">
          <mxGeometry x="776.77" y="236.22000000000003" width="45.2755" height="45.2755" as="geometry" />
        </mxCell>
        <mxCell id="e2MTIjUZ4DIBRAJPxZr3-106" value="" style="rounded=0;whiteSpace=wrap;html=1;strokeWidth=0.3937;" vertex="1" parent="1">
          <mxGeometry x="776.77" y="281.49" width="45.2755" height="45.2755" as="geometry" />
        </mxCell>
        <mxCell id="e2MTIjUZ4DIBRAJPxZr3-107" value="" style="rounded=0;whiteSpace=wrap;html=1;strokeWidth=0.3937;" vertex="1" parent="1">
          <mxGeometry x="822.05" y="281.49" width="45.2755" height="45.2755" as="geometry" />
        </mxCell>
        <mxCell id="e2MTIjUZ4DIBRAJPxZr3-108" value="" style="rounded=0;whiteSpace=wrap;html=1;strokeWidth=0.3937;" vertex="1" parent="1">
          <mxGeometry x="904.3299999999999" y="236.23000000000002" width="45.2755" height="45.2755" as="geometry" />
        </mxCell>
        <mxCell id="e2MTIjUZ4DIBRAJPxZr3-109" value="" style="rounded=0;whiteSpace=wrap;html=1;strokeWidth=0.3937;" vertex="1" parent="1">
          <mxGeometry x="904.3299999999999" y="281.5" width="45.2755" height="45.2755" as="geometry" />
        </mxCell>
        <mxCell id="e2MTIjUZ4DIBRAJPxZr3-110" value="" style="rounded=0;whiteSpace=wrap;html=1;strokeWidth=0.3937;" vertex="1" parent="1">
          <mxGeometry x="949.61" y="281.5" width="45.2755" height="45.2755" as="geometry" />
        </mxCell>
        <mxCell id="e2MTIjUZ4DIBRAJPxZr3-111" value="" style="rounded=0;whiteSpace=wrap;html=1;strokeWidth=0.3937;" vertex="1" parent="1">
          <mxGeometry x="1031.49" y="236.23000000000002" width="45.2755" height="45.2755" as="geometry" />
        </mxCell>
        <mxCell id="e2MTIjUZ4DIBRAJPxZr3-112" value="" style="rounded=0;whiteSpace=wrap;html=1;strokeWidth=0.3937;" vertex="1" parent="1">
          <mxGeometry x="1076.77" y="281.5" width="45.2755" height="45.2755" as="geometry" />
        </mxCell>
        <mxCell id="e2MTIjUZ4DIBRAJPxZr3-113" value="" style="rounded=0;whiteSpace=wrap;html=1;strokeWidth=0.3937;" vertex="1" parent="1">
          <mxGeometry x="669.29" y="173.23000000000002" width="25.5905" height="25.5905" as="geometry" />
        </mxCell>
        <mxCell id="e2MTIjUZ4DIBRAJPxZr3-114" value="" style="rounded=0;whiteSpace=wrap;html=1;strokeWidth=0.3937;" vertex="1" parent="1">
          <mxGeometry x="694.88" y="198.81999999999994" width="25.5905" height="25.5905" as="geometry" />
        </mxCell>
        <mxCell id="e2MTIjUZ4DIBRAJPxZr3-115" value="" style="rounded=0;whiteSpace=wrap;html=1;strokeWidth=0.3937;" vertex="1" parent="1">
          <mxGeometry x="796.4499999999999" y="173.23000000000002" width="25.5905" height="25.5905" as="geometry" />
        </mxCell>
        <mxCell id="e2MTIjUZ4DIBRAJPxZr3-116" value="" style="rounded=0;whiteSpace=wrap;html=1;strokeWidth=0.3937;" vertex="1" parent="1">
          <mxGeometry x="822.04" y="198.81999999999994" width="25.5905" height="25.5905" as="geometry" />
        </mxCell>
        <mxCell id="e2MTIjUZ4DIBRAJPxZr3-117" value="" style="rounded=0;whiteSpace=wrap;html=1;strokeWidth=0.3937;" vertex="1" parent="1">
          <mxGeometry x="924.02" y="173.23000000000002" width="25.5905" height="25.5905" as="geometry" />
        </mxCell>
        <mxCell id="e2MTIjUZ4DIBRAJPxZr3-118" value="" style="rounded=0;whiteSpace=wrap;html=1;strokeWidth=0.3937;" vertex="1" parent="1">
          <mxGeometry x="949.6099999999999" y="198.81999999999994" width="25.5905" height="25.5905" as="geometry" />
        </mxCell>
        <mxCell id="e2MTIjUZ4DIBRAJPxZr3-119" value="" style="rounded=0;whiteSpace=wrap;html=1;strokeWidth=0.3937;" vertex="1" parent="1">
          <mxGeometry x="1051.1899999999998" y="173.23000000000002" width="25.5905" height="25.5905" as="geometry" />
        </mxCell>
        <mxCell id="e2MTIjUZ4DIBRAJPxZr3-120" value="" style="rounded=0;whiteSpace=wrap;html=1;strokeWidth=0.3937;" vertex="1" parent="1">
          <mxGeometry x="1076.78" y="198.81999999999994" width="25.5905" height="25.5905" as="geometry" />
        </mxCell>
        <mxCell id="e2MTIjUZ4DIBRAJPxZr3-121" value="" style="rounded=0;whiteSpace=wrap;html=1;strokeWidth=0.3937;" vertex="1" parent="1">
          <mxGeometry x="993.52" y="133.86" width="19.685" height="19.685" as="geometry" />
        </mxCell>
        <mxCell id="e2MTIjUZ4DIBRAJPxZr3-122" value="" style="rounded=0;whiteSpace=wrap;html=1;strokeWidth=0.3937;" vertex="1" parent="1">
          <mxGeometry x="738.77" y="133.86" width="39.37" height="39.37" as="geometry" />
        </mxCell>
        <mxCell id="e2MTIjUZ4DIBRAJPxZr3-123" value="" style="rounded=0;whiteSpace=wrap;html=1;strokeWidth=0.3937;" vertex="1" parent="1">
          <mxGeometry x="738.77" y="338.58000000000004" width="39.37" height="39.37" as="geometry" />
        </mxCell>
        <mxCell id="e2MTIjUZ4DIBRAJPxZr3-124" value="" style="rounded=0;whiteSpace=wrap;html=1;strokeWidth=0.3937;" vertex="1" parent="1">
          <mxGeometry x="866.14" y="133.86" width="39.37" height="39.37" as="geometry" />
        </mxCell>
        <mxCell id="e2MTIjUZ4DIBRAJPxZr3-125" value="" style="rounded=0;whiteSpace=wrap;html=1;strokeWidth=0.3937;" vertex="1" parent="1">
          <mxGeometry x="866.3499999999999" y="338.5799999999999" width="39.37" height="39.37" as="geometry" />
        </mxCell>
        <mxCell id="e2MTIjUZ4DIBRAJPxZr3-126" value="" style="rounded=0;whiteSpace=wrap;html=1;strokeWidth=0.3937;" vertex="1" parent="1">
          <mxGeometry x="993.52" y="133.86" width="39.37" height="39.37" as="geometry" />
        </mxCell>
        <mxCell id="e2MTIjUZ4DIBRAJPxZr3-127" value="" style="rounded=0;whiteSpace=wrap;html=1;strokeWidth=0.3937;" vertex="1" parent="1">
          <mxGeometry x="993.52" y="338.5799999999999" width="39.37" height="39.37" as="geometry" />
        </mxCell>
        <mxCell id="e2MTIjUZ4DIBRAJPxZr3-128" value="" style="rounded=0;whiteSpace=wrap;html=1;strokeWidth=0.3937;" vertex="1" parent="1">
          <mxGeometry x="993.52" y="133.86" width="19.685" height="19.685" as="geometry" />
        </mxCell>
        <mxCell id="e2MTIjUZ4DIBRAJPxZr3-129" value="" style="rounded=0;whiteSpace=wrap;html=1;strokeWidth=0.3937;" vertex="1" parent="1">
          <mxGeometry x="1013.21" y="153.53999999999996" width="19.685" height="19.685" as="geometry" />
        </mxCell>
        <mxCell id="e2MTIjUZ4DIBRAJPxZr3-130" value="" style="rounded=0;whiteSpace=wrap;html=1;strokeWidth=0.3937;" vertex="1" parent="1">
          <mxGeometry x="866.14" y="133.86" width="19.685" height="19.685" as="geometry" />
        </mxCell>
        <mxCell id="e2MTIjUZ4DIBRAJPxZr3-131" value="" style="rounded=0;whiteSpace=wrap;html=1;strokeWidth=0.3937;" vertex="1" parent="1">
          <mxGeometry x="885.8299999999999" y="153.53999999999996" width="19.685" height="19.685" as="geometry" />
        </mxCell>
        <mxCell id="e2MTIjUZ4DIBRAJPxZr3-132" value="" style="rounded=0;whiteSpace=wrap;html=1;strokeWidth=0.3937;" vertex="1" parent="1">
          <mxGeometry x="738.77" y="133.86" width="19.685" height="19.685" as="geometry" />
        </mxCell>
        <mxCell id="e2MTIjUZ4DIBRAJPxZr3-133" value="" style="rounded=0;whiteSpace=wrap;html=1;strokeWidth=0.3937;" vertex="1" parent="1">
          <mxGeometry x="758.46" y="153.53999999999996" width="19.685" height="19.685" as="geometry" />
        </mxCell>
        <mxCell id="e2MTIjUZ4DIBRAJPxZr3-134" value="" style="rounded=0;whiteSpace=wrap;html=1;strokeWidth=0.3937;" vertex="1" parent="1">
          <mxGeometry x="993.52" y="338.58000000000004" width="19.685" height="19.685" as="geometry" />
        </mxCell>
        <mxCell id="e2MTIjUZ4DIBRAJPxZr3-135" value="" style="rounded=0;whiteSpace=wrap;html=1;strokeWidth=0.3937;" vertex="1" parent="1">
          <mxGeometry x="1013.2099999999998" y="358.26" width="19.685" height="19.685" as="geometry" />
        </mxCell>
        <mxCell id="e2MTIjUZ4DIBRAJPxZr3-136" value="" style="rounded=0;whiteSpace=wrap;html=1;strokeWidth=0.3937;" vertex="1" parent="1">
          <mxGeometry x="866.14" y="338.59000000000003" width="19.685" height="19.685" as="geometry" />
        </mxCell>
        <mxCell id="e2MTIjUZ4DIBRAJPxZr3-137" value="" style="rounded=0;whiteSpace=wrap;html=1;strokeWidth=0.3937;" vertex="1" parent="1">
          <mxGeometry x="885.8299999999999" y="358.27" width="19.685" height="19.685" as="geometry" />
        </mxCell>
        <mxCell id="e2MTIjUZ4DIBRAJPxZr3-138" value="" style="rounded=0;whiteSpace=wrap;html=1;strokeWidth=0.3937;" vertex="1" parent="1">
          <mxGeometry x="738.78" y="338.59000000000003" width="19.685" height="19.685" as="geometry" />
        </mxCell>
        <mxCell id="e2MTIjUZ4DIBRAJPxZr3-139" value="" style="rounded=0;whiteSpace=wrap;html=1;strokeWidth=0.3937;" vertex="1" parent="1">
          <mxGeometry x="758.4699999999999" y="358.27" width="19.685" height="19.685" as="geometry" />
        </mxCell>
        <mxCell id="e2MTIjUZ4DIBRAJPxZr3-140" value="" style="rounded=0;whiteSpace=wrap;html=1;movable=1;resizable=1;rotatable=1;deletable=1;editable=1;locked=0;connectable=1;strokeWidth=0.3937;" vertex="1" parent="1">
          <mxGeometry y="393.7" width="590.55" height="393.7" as="geometry" />
        </mxCell>
        <mxCell id="e2MTIjUZ4DIBRAJPxZr3-141" value="" style="rounded=0;whiteSpace=wrap;html=1;aspect=fixed;strokeWidth=0.3937;" vertex="1" parent="1">
          <mxGeometry x="59.05499999999995" y="425.19599999999997" width="90.551" height="90.551" as="geometry" />
        </mxCell>
        <mxCell id="e2MTIjUZ4DIBRAJPxZr3-142" value="" style="rounded=0;whiteSpace=wrap;html=1;aspect=fixed;strokeWidth=0.3937;" vertex="1" parent="1">
          <mxGeometry x="440.95399999999995" y="425.19599999999997" width="90.551" height="90.551" as="geometry" />
        </mxCell>
        <mxCell id="e2MTIjUZ4DIBRAJPxZr3-143" value="" style="rounded=0;whiteSpace=wrap;html=1;aspect=fixed;strokeWidth=0.3937;" vertex="1" parent="1">
          <mxGeometry x="186.22000000000003" y="425.19599999999997" width="90.551" height="90.551" as="geometry" />
        </mxCell>
        <mxCell id="e2MTIjUZ4DIBRAJPxZr3-144" value="" style="rounded=0;whiteSpace=wrap;html=1;aspect=fixed;strokeWidth=0.3937;" vertex="1" parent="1">
          <mxGeometry x="313.78999999999996" y="425.19599999999997" width="90.551" height="90.551" as="geometry" />
        </mxCell>
        <mxCell id="e2MTIjUZ4DIBRAJPxZr3-145" value="" style="rounded=0;whiteSpace=wrap;html=1;strokeWidth=0.3937;" vertex="1" parent="1">
          <mxGeometry x="59.01999999999998" y="527.5600000000001" width="472.5" height="39.37" as="geometry" />
        </mxCell>
        <mxCell id="e2MTIjUZ4DIBRAJPxZr3-146" value="" style="rounded=0;whiteSpace=wrap;html=1;aspect=fixed;strokeWidth=0.3937;" vertex="1" parent="1">
          <mxGeometry x="59.049999999999955" y="629.9200000000001" width="90.551" height="90.551" as="geometry" />
        </mxCell>
        <mxCell id="e2MTIjUZ4DIBRAJPxZr3-147" value="" style="rounded=0;whiteSpace=wrap;html=1;aspect=fixed;strokeWidth=0.3937;" vertex="1" parent="1">
          <mxGeometry x="440.94899999999984" y="629.9200000000001" width="90.551" height="90.551" as="geometry" />
        </mxCell>
        <mxCell id="e2MTIjUZ4DIBRAJPxZr3-148" value="" style="rounded=0;whiteSpace=wrap;html=1;aspect=fixed;strokeWidth=0.3937;" vertex="1" parent="1">
          <mxGeometry x="186.21499999999992" y="629.9200000000001" width="90.551" height="90.551" as="geometry" />
        </mxCell>
        <mxCell id="e2MTIjUZ4DIBRAJPxZr3-149" value="" style="rounded=0;whiteSpace=wrap;html=1;aspect=fixed;strokeWidth=0.3937;" vertex="1" parent="1">
          <mxGeometry x="313.7850000000001" y="629.9200000000001" width="90.551" height="90.551" as="geometry" />
        </mxCell>
        <mxCell id="e2MTIjUZ4DIBRAJPxZr3-150" value="" style="rounded=0;whiteSpace=wrap;html=1;strokeWidth=0.3937;" vertex="1" parent="1">
          <mxGeometry x="10.004999999999995" y="425.2" width="39.37" height="137.795" as="geometry" />
        </mxCell>
        <mxCell id="e2MTIjUZ4DIBRAJPxZr3-151" value="" style="rounded=0;whiteSpace=wrap;html=1;strokeWidth=0.3937;" vertex="1" parent="1">
          <mxGeometry x="59.049999999999955" y="732.28" width="472.5" height="39.37" as="geometry" />
        </mxCell>
        <mxCell id="e2MTIjUZ4DIBRAJPxZr3-152" value="" style="rounded=0;whiteSpace=wrap;html=1;strokeWidth=0.3937;" vertex="1" parent="1">
          <mxGeometry x="78.74000000000001" y="566.9300000000001" width="51.181" height="51.181" as="geometry" />
        </mxCell>
        <mxCell id="e2MTIjUZ4DIBRAJPxZr3-153" value="" style="rounded=0;whiteSpace=wrap;html=1;strokeWidth=0.3937;" vertex="1" parent="1">
          <mxGeometry x="460.6399999999999" y="566.9300000000001" width="51.181" height="51.181" as="geometry" />
        </mxCell>
        <mxCell id="e2MTIjUZ4DIBRAJPxZr3-154" value="" style="rounded=0;whiteSpace=wrap;html=1;strokeWidth=0.3937;" vertex="1" parent="1">
          <mxGeometry x="333.47" y="566.9300000000001" width="51.181" height="51.181" as="geometry" />
        </mxCell>
        <mxCell id="e2MTIjUZ4DIBRAJPxZr3-155" value="" style="rounded=0;whiteSpace=wrap;html=1;strokeWidth=0.3937;" vertex="1" parent="1">
          <mxGeometry x="205.91000000000008" y="566.9300000000001" width="51.181" height="51.181" as="geometry" />
        </mxCell>
        <mxCell id="e2MTIjUZ4DIBRAJPxZr3-156" value="" style="rounded=0;whiteSpace=wrap;html=1;strokeWidth=0.3937;" vertex="1" parent="1">
          <mxGeometry x="10" y="629.9200000000001" width="39.37" height="137.795" as="geometry" />
        </mxCell>
        <mxCell id="e2MTIjUZ4DIBRAJPxZr3-157" value="" style="endArrow=none;html=1;rounded=0;strokeWidth=0.3937;" edge="1" parent="1">
          <mxGeometry width="50" height="50" relative="1" as="geometry">
            <mxPoint y="623.7" as="sourcePoint" />
            <mxPoint x="590.55" y="623.7" as="targetPoint" />
          </mxGeometry>
        </mxCell>
        <mxCell id="e2MTIjUZ4DIBRAJPxZr3-158" value="" style="rounded=0;whiteSpace=wrap;html=1;strokeWidth=0.3937;" vertex="1" parent="1">
          <mxGeometry x="59.01999999999998" y="425.2" width="45.2755" height="45.2755" as="geometry" />
        </mxCell>
        <mxCell id="e2MTIjUZ4DIBRAJPxZr3-159" value="" style="rounded=0;whiteSpace=wrap;html=1;strokeWidth=0.3937;" vertex="1" parent="1">
          <mxGeometry x="104.33000000000004" y="470.46999999999997" width="45.2755" height="45.2755" as="geometry" />
        </mxCell>
        <mxCell id="e2MTIjUZ4DIBRAJPxZr3-160" value="" style="rounded=0;whiteSpace=wrap;html=1;strokeWidth=0.3937;" vertex="1" parent="1">
          <mxGeometry x="186.21000000000004" y="425.2" width="45.2755" height="45.2755" as="geometry" />
        </mxCell>
        <mxCell id="e2MTIjUZ4DIBRAJPxZr3-161" value="" style="rounded=0;whiteSpace=wrap;html=1;strokeWidth=0.3937;" vertex="1" parent="1">
          <mxGeometry x="231.49" y="470.46999999999997" width="45.2755" height="45.2755" as="geometry" />
        </mxCell>
        <mxCell id="e2MTIjUZ4DIBRAJPxZr3-162" value="" style="rounded=0;whiteSpace=wrap;html=1;strokeWidth=0.3937;" vertex="1" parent="1">
          <mxGeometry x="313.78999999999996" y="425.2" width="45.2755" height="45.2755" as="geometry" />
        </mxCell>
        <mxCell id="e2MTIjUZ4DIBRAJPxZr3-163" value="" style="rounded=0;whiteSpace=wrap;html=1;strokeWidth=0.3937;" vertex="1" parent="1">
          <mxGeometry x="359.06999999999994" y="470.46999999999997" width="45.2755" height="45.2755" as="geometry" />
        </mxCell>
        <mxCell id="e2MTIjUZ4DIBRAJPxZr3-164" value="" style="rounded=0;whiteSpace=wrap;html=1;strokeWidth=0.3937;" vertex="1" parent="1">
          <mxGeometry x="440.94000000000005" y="425.2" width="45.2755" height="45.2755" as="geometry" />
        </mxCell>
        <mxCell id="e2MTIjUZ4DIBRAJPxZr3-165" value="" style="rounded=0;whiteSpace=wrap;html=1;strokeWidth=0.3937;" vertex="1" parent="1">
          <mxGeometry x="486.22" y="470.46999999999997" width="45.2755" height="45.2755" as="geometry" />
        </mxCell>
        <mxCell id="e2MTIjUZ4DIBRAJPxZr3-166" value="" style="rounded=0;whiteSpace=wrap;html=1;strokeWidth=0.3937;" vertex="1" parent="1">
          <mxGeometry x="59.049999999999955" y="629.9300000000001" width="45.2755" height="45.2755" as="geometry" />
        </mxCell>
        <mxCell id="e2MTIjUZ4DIBRAJPxZr3-167" value="" style="rounded=0;whiteSpace=wrap;html=1;strokeWidth=0.3937;" vertex="1" parent="1">
          <mxGeometry x="104.32999999999993" y="675.2" width="45.2755" height="45.2755" as="geometry" />
        </mxCell>
        <mxCell id="e2MTIjUZ4DIBRAJPxZr3-168" value="" style="rounded=0;whiteSpace=wrap;html=1;strokeWidth=0.3937;" vertex="1" parent="1">
          <mxGeometry x="186.22000000000003" y="629.9200000000001" width="45.2755" height="45.2755" as="geometry" />
        </mxCell>
        <mxCell id="e2MTIjUZ4DIBRAJPxZr3-169" value="" style="rounded=0;whiteSpace=wrap;html=1;strokeWidth=0.3937;" vertex="1" parent="1">
          <mxGeometry x="186.22000000000003" y="675.19" width="45.2755" height="45.2755" as="geometry" />
        </mxCell>
        <mxCell id="e2MTIjUZ4DIBRAJPxZr3-170" value="" style="rounded=0;whiteSpace=wrap;html=1;strokeWidth=0.3937;" vertex="1" parent="1">
          <mxGeometry x="231.5" y="675.19" width="45.2755" height="45.2755" as="geometry" />
        </mxCell>
        <mxCell id="e2MTIjUZ4DIBRAJPxZr3-171" value="" style="rounded=0;whiteSpace=wrap;html=1;strokeWidth=0.3937;" vertex="1" parent="1">
          <mxGeometry x="313.78" y="629.9300000000001" width="45.2755" height="45.2755" as="geometry" />
        </mxCell>
        <mxCell id="e2MTIjUZ4DIBRAJPxZr3-172" value="" style="rounded=0;whiteSpace=wrap;html=1;strokeWidth=0.3937;" vertex="1" parent="1">
          <mxGeometry x="313.78" y="675.2" width="45.2755" height="45.2755" as="geometry" />
        </mxCell>
        <mxCell id="e2MTIjUZ4DIBRAJPxZr3-173" value="" style="rounded=0;whiteSpace=wrap;html=1;strokeWidth=0.3937;" vertex="1" parent="1">
          <mxGeometry x="359.05999999999995" y="675.2" width="45.2755" height="45.2755" as="geometry" />
        </mxCell>
        <mxCell id="e2MTIjUZ4DIBRAJPxZr3-174" value="" style="rounded=0;whiteSpace=wrap;html=1;strokeWidth=0.3937;" vertex="1" parent="1">
          <mxGeometry x="440.94000000000005" y="629.9300000000001" width="45.2755" height="45.2755" as="geometry" />
        </mxCell>
        <mxCell id="e2MTIjUZ4DIBRAJPxZr3-175" value="" style="rounded=0;whiteSpace=wrap;html=1;strokeWidth=0.3937;" vertex="1" parent="1">
          <mxGeometry x="486.22" y="675.2" width="45.2755" height="45.2755" as="geometry" />
        </mxCell>
        <mxCell id="e2MTIjUZ4DIBRAJPxZr3-176" value="" style="rounded=0;whiteSpace=wrap;html=1;strokeWidth=0.3937;" vertex="1" parent="1">
          <mxGeometry x="78.74000000000001" y="566.9300000000001" width="25.5905" height="25.5905" as="geometry" />
        </mxCell>
        <mxCell id="e2MTIjUZ4DIBRAJPxZr3-177" value="" style="rounded=0;whiteSpace=wrap;html=1;strokeWidth=0.3937;" vertex="1" parent="1">
          <mxGeometry x="104.33000000000004" y="592.52" width="25.5905" height="25.5905" as="geometry" />
        </mxCell>
        <mxCell id="e2MTIjUZ4DIBRAJPxZr3-178" value="" style="rounded=0;whiteSpace=wrap;html=1;strokeWidth=0.3937;" vertex="1" parent="1">
          <mxGeometry x="205.89999999999998" y="566.9300000000001" width="25.5905" height="25.5905" as="geometry" />
        </mxCell>
        <mxCell id="e2MTIjUZ4DIBRAJPxZr3-179" value="" style="rounded=0;whiteSpace=wrap;html=1;strokeWidth=0.3937;" vertex="1" parent="1">
          <mxGeometry x="231.49" y="592.52" width="25.5905" height="25.5905" as="geometry" />
        </mxCell>
        <mxCell id="e2MTIjUZ4DIBRAJPxZr3-180" value="" style="rounded=0;whiteSpace=wrap;html=1;strokeWidth=0.3937;" vertex="1" parent="1">
          <mxGeometry x="333.47" y="566.9300000000001" width="25.5905" height="25.5905" as="geometry" />
        </mxCell>
        <mxCell id="e2MTIjUZ4DIBRAJPxZr3-181" value="" style="rounded=0;whiteSpace=wrap;html=1;strokeWidth=0.3937;" vertex="1" parent="1">
          <mxGeometry x="359.05999999999995" y="592.52" width="25.5905" height="25.5905" as="geometry" />
        </mxCell>
        <mxCell id="e2MTIjUZ4DIBRAJPxZr3-182" value="" style="rounded=0;whiteSpace=wrap;html=1;strokeWidth=0.3937;" vertex="1" parent="1">
          <mxGeometry x="460.6399999999999" y="566.9300000000001" width="25.5905" height="25.5905" as="geometry" />
        </mxCell>
        <mxCell id="e2MTIjUZ4DIBRAJPxZr3-183" value="" style="rounded=0;whiteSpace=wrap;html=1;strokeWidth=0.3937;" vertex="1" parent="1">
          <mxGeometry x="486.23" y="592.52" width="25.5905" height="25.5905" as="geometry" />
        </mxCell>
        <mxCell id="e2MTIjUZ4DIBRAJPxZr3-184" value="" style="rounded=0;whiteSpace=wrap;html=1;strokeWidth=0.3937;" vertex="1" parent="1">
          <mxGeometry x="402.97" y="527.5600000000001" width="19.685" height="19.685" as="geometry" />
        </mxCell>
        <mxCell id="e2MTIjUZ4DIBRAJPxZr3-185" value="" style="rounded=0;whiteSpace=wrap;html=1;strokeWidth=0.3937;" vertex="1" parent="1">
          <mxGeometry x="148.22000000000003" y="527.5600000000001" width="39.37" height="39.37" as="geometry" />
        </mxCell>
        <mxCell id="e2MTIjUZ4DIBRAJPxZr3-186" value="" style="rounded=0;whiteSpace=wrap;html=1;strokeWidth=0.3937;" vertex="1" parent="1">
          <mxGeometry x="148.22000000000003" y="732.2800000000001" width="39.37" height="39.37" as="geometry" />
        </mxCell>
        <mxCell id="e2MTIjUZ4DIBRAJPxZr3-187" value="" style="rounded=0;whiteSpace=wrap;html=1;strokeWidth=0.3937;" vertex="1" parent="1">
          <mxGeometry x="275.59000000000003" y="527.5600000000001" width="39.37" height="39.37" as="geometry" />
        </mxCell>
        <mxCell id="e2MTIjUZ4DIBRAJPxZr3-188" value="" style="rounded=0;whiteSpace=wrap;html=1;strokeWidth=0.3937;" vertex="1" parent="1">
          <mxGeometry x="275.79999999999995" y="732.28" width="39.37" height="39.37" as="geometry" />
        </mxCell>
        <mxCell id="e2MTIjUZ4DIBRAJPxZr3-189" value="" style="rounded=0;whiteSpace=wrap;html=1;strokeWidth=0.3937;" vertex="1" parent="1">
          <mxGeometry x="402.97" y="527.5600000000001" width="39.37" height="39.37" as="geometry" />
        </mxCell>
        <mxCell id="e2MTIjUZ4DIBRAJPxZr3-190" value="" style="rounded=0;whiteSpace=wrap;html=1;strokeWidth=0.3937;" vertex="1" parent="1">
          <mxGeometry x="402.97" y="732.28" width="39.37" height="39.37" as="geometry" />
        </mxCell>
        <mxCell id="e2MTIjUZ4DIBRAJPxZr3-191" value="" style="rounded=0;whiteSpace=wrap;html=1;strokeWidth=0.3937;" vertex="1" parent="1">
          <mxGeometry x="402.97" y="527.5600000000001" width="19.685" height="19.685" as="geometry" />
        </mxCell>
        <mxCell id="e2MTIjUZ4DIBRAJPxZr3-192" value="" style="rounded=0;whiteSpace=wrap;html=1;strokeWidth=0.3937;" vertex="1" parent="1">
          <mxGeometry x="422.6600000000001" y="547.24" width="19.685" height="19.685" as="geometry" />
        </mxCell>
        <mxCell id="e2MTIjUZ4DIBRAJPxZr3-193" value="" style="rounded=0;whiteSpace=wrap;html=1;strokeWidth=0.3937;" vertex="1" parent="1">
          <mxGeometry x="275.59000000000003" y="527.5600000000001" width="19.685" height="19.685" as="geometry" />
        </mxCell>
        <mxCell id="e2MTIjUZ4DIBRAJPxZr3-194" value="" style="rounded=0;whiteSpace=wrap;html=1;strokeWidth=0.3937;" vertex="1" parent="1">
          <mxGeometry x="295.28" y="547.24" width="19.685" height="19.685" as="geometry" />
        </mxCell>
        <mxCell id="e2MTIjUZ4DIBRAJPxZr3-195" value="" style="rounded=0;whiteSpace=wrap;html=1;strokeWidth=0.3937;" vertex="1" parent="1">
          <mxGeometry x="148.22000000000003" y="527.5600000000001" width="19.685" height="19.685" as="geometry" />
        </mxCell>
        <mxCell id="e2MTIjUZ4DIBRAJPxZr3-196" value="" style="rounded=0;whiteSpace=wrap;html=1;strokeWidth=0.3937;" vertex="1" parent="1">
          <mxGeometry x="167.91000000000008" y="547.24" width="19.685" height="19.685" as="geometry" />
        </mxCell>
        <mxCell id="e2MTIjUZ4DIBRAJPxZr3-197" value="" style="rounded=0;whiteSpace=wrap;html=1;strokeWidth=0.3937;" vertex="1" parent="1">
          <mxGeometry x="402.97" y="732.2800000000001" width="19.685" height="19.685" as="geometry" />
        </mxCell>
        <mxCell id="e2MTIjUZ4DIBRAJPxZr3-198" value="" style="rounded=0;whiteSpace=wrap;html=1;strokeWidth=0.3937;" vertex="1" parent="1">
          <mxGeometry x="422.65999999999985" y="751.96" width="19.685" height="19.685" as="geometry" />
        </mxCell>
        <mxCell id="e2MTIjUZ4DIBRAJPxZr3-199" value="" style="rounded=0;whiteSpace=wrap;html=1;strokeWidth=0.3937;" vertex="1" parent="1">
          <mxGeometry x="275.59000000000003" y="732.2900000000001" width="19.685" height="19.685" as="geometry" />
        </mxCell>
        <mxCell id="e2MTIjUZ4DIBRAJPxZr3-200" value="" style="rounded=0;whiteSpace=wrap;html=1;strokeWidth=0.3937;" vertex="1" parent="1">
          <mxGeometry x="295.28" y="751.97" width="19.685" height="19.685" as="geometry" />
        </mxCell>
        <mxCell id="e2MTIjUZ4DIBRAJPxZr3-201" value="" style="rounded=0;whiteSpace=wrap;html=1;strokeWidth=0.3937;" vertex="1" parent="1">
          <mxGeometry x="148.23000000000002" y="732.2900000000001" width="19.685" height="19.685" as="geometry" />
        </mxCell>
        <mxCell id="e2MTIjUZ4DIBRAJPxZr3-202" value="" style="rounded=0;whiteSpace=wrap;html=1;strokeWidth=0.3937;" vertex="1" parent="1">
          <mxGeometry x="167.91999999999996" y="751.97" width="19.685" height="19.685" as="geometry" />
        </mxCell>
        <mxCell id="e2MTIjUZ4DIBRAJPxZr3-203" value="" style="rounded=0;whiteSpace=wrap;html=1;movable=1;resizable=1;rotatable=1;deletable=1;editable=1;locked=0;connectable=1;strokeWidth=0.3937;" vertex="1" parent="1">
          <mxGeometry x="590.55" y="393.7" width="590.55" height="393.7" as="geometry" />
        </mxCell>
        <mxCell id="e2MTIjUZ4DIBRAJPxZr3-204" value="" style="rounded=0;whiteSpace=wrap;html=1;aspect=fixed;strokeWidth=0.3937;" vertex="1" parent="1">
          <mxGeometry x="649.605" y="425.19599999999997" width="90.551" height="90.551" as="geometry" />
        </mxCell>
        <mxCell id="e2MTIjUZ4DIBRAJPxZr3-205" value="" style="rounded=0;whiteSpace=wrap;html=1;aspect=fixed;strokeWidth=0.3937;" vertex="1" parent="1">
          <mxGeometry x="1031.504" y="425.19599999999997" width="90.551" height="90.551" as="geometry" />
        </mxCell>
        <mxCell id="e2MTIjUZ4DIBRAJPxZr3-206" value="" style="rounded=0;whiteSpace=wrap;html=1;aspect=fixed;strokeWidth=0.3937;" vertex="1" parent="1">
          <mxGeometry x="776.77" y="425.19599999999997" width="90.551" height="90.551" as="geometry" />
        </mxCell>
        <mxCell id="e2MTIjUZ4DIBRAJPxZr3-207" value="" style="rounded=0;whiteSpace=wrap;html=1;aspect=fixed;strokeWidth=0.3937;" vertex="1" parent="1">
          <mxGeometry x="904.34" y="425.19599999999997" width="90.551" height="90.551" as="geometry" />
        </mxCell>
        <mxCell id="e2MTIjUZ4DIBRAJPxZr3-208" value="" style="rounded=0;whiteSpace=wrap;html=1;strokeWidth=0.3937;" vertex="1" parent="1">
          <mxGeometry x="649.5699999999999" y="527.5600000000001" width="472.5" height="39.37" as="geometry" />
        </mxCell>
        <mxCell id="e2MTIjUZ4DIBRAJPxZr3-209" value="" style="rounded=0;whiteSpace=wrap;html=1;aspect=fixed;strokeWidth=0.3937;" vertex="1" parent="1">
          <mxGeometry x="649.6" y="629.9200000000001" width="90.551" height="90.551" as="geometry" />
        </mxCell>
        <mxCell id="e2MTIjUZ4DIBRAJPxZr3-210" value="" style="rounded=0;whiteSpace=wrap;html=1;aspect=fixed;strokeWidth=0.3937;" vertex="1" parent="1">
          <mxGeometry x="1031.4989999999998" y="629.9200000000001" width="90.551" height="90.551" as="geometry" />
        </mxCell>
        <mxCell id="e2MTIjUZ4DIBRAJPxZr3-211" value="" style="rounded=0;whiteSpace=wrap;html=1;aspect=fixed;strokeWidth=0.3937;" vertex="1" parent="1">
          <mxGeometry x="776.765" y="629.9200000000001" width="90.551" height="90.551" as="geometry" />
        </mxCell>
        <mxCell id="e2MTIjUZ4DIBRAJPxZr3-212" value="" style="rounded=0;whiteSpace=wrap;html=1;aspect=fixed;strokeWidth=0.3937;" vertex="1" parent="1">
          <mxGeometry x="904.335" y="629.9200000000001" width="90.551" height="90.551" as="geometry" />
        </mxCell>
        <mxCell id="e2MTIjUZ4DIBRAJPxZr3-213" value="" style="rounded=0;whiteSpace=wrap;html=1;strokeWidth=0.3937;" vertex="1" parent="1">
          <mxGeometry x="600.555" y="425.2" width="39.37" height="137.795" as="geometry" />
        </mxCell>
        <mxCell id="e2MTIjUZ4DIBRAJPxZr3-214" value="" style="rounded=0;whiteSpace=wrap;html=1;strokeWidth=0.3937;" vertex="1" parent="1">
          <mxGeometry x="649.6" y="732.28" width="472.5" height="39.37" as="geometry" />
        </mxCell>
        <mxCell id="e2MTIjUZ4DIBRAJPxZr3-215" value="" style="rounded=0;whiteSpace=wrap;html=1;strokeWidth=0.3937;" vertex="1" parent="1">
          <mxGeometry x="669.29" y="566.9300000000001" width="51.181" height="51.181" as="geometry" />
        </mxCell>
        <mxCell id="e2MTIjUZ4DIBRAJPxZr3-216" value="" style="rounded=0;whiteSpace=wrap;html=1;strokeWidth=0.3937;" vertex="1" parent="1">
          <mxGeometry x="1051.19" y="566.9300000000001" width="51.181" height="51.181" as="geometry" />
        </mxCell>
        <mxCell id="e2MTIjUZ4DIBRAJPxZr3-217" value="" style="rounded=0;whiteSpace=wrap;html=1;strokeWidth=0.3937;" vertex="1" parent="1">
          <mxGeometry x="924.02" y="566.9300000000001" width="51.181" height="51.181" as="geometry" />
        </mxCell>
        <mxCell id="e2MTIjUZ4DIBRAJPxZr3-218" value="" style="rounded=0;whiteSpace=wrap;html=1;strokeWidth=0.3937;" vertex="1" parent="1">
          <mxGeometry x="796.46" y="566.9300000000001" width="51.181" height="51.181" as="geometry" />
        </mxCell>
        <mxCell id="e2MTIjUZ4DIBRAJPxZr3-219" value="" style="rounded=0;whiteSpace=wrap;html=1;strokeWidth=0.3937;" vertex="1" parent="1">
          <mxGeometry x="600.55" y="629.9200000000001" width="39.37" height="137.795" as="geometry" />
        </mxCell>
        <mxCell id="e2MTIjUZ4DIBRAJPxZr3-220" value="" style="endArrow=none;html=1;rounded=0;strokeWidth=0.3937;" edge="1" parent="1">
          <mxGeometry width="50" height="50" relative="1" as="geometry">
            <mxPoint x="590.55" y="623.7" as="sourcePoint" />
            <mxPoint x="1181.1" y="623.7" as="targetPoint" />
          </mxGeometry>
        </mxCell>
        <mxCell id="e2MTIjUZ4DIBRAJPxZr3-221" value="" style="rounded=0;whiteSpace=wrap;html=1;strokeWidth=0.3937;" vertex="1" parent="1">
          <mxGeometry x="649.5699999999999" y="425.2" width="45.2755" height="45.2755" as="geometry" />
        </mxCell>
        <mxCell id="e2MTIjUZ4DIBRAJPxZr3-222" value="" style="rounded=0;whiteSpace=wrap;html=1;strokeWidth=0.3937;" vertex="1" parent="1">
          <mxGeometry x="694.88" y="470.46999999999997" width="45.2755" height="45.2755" as="geometry" />
        </mxCell>
        <mxCell id="e2MTIjUZ4DIBRAJPxZr3-223" value="" style="rounded=0;whiteSpace=wrap;html=1;strokeWidth=0.3937;" vertex="1" parent="1">
          <mxGeometry x="776.76" y="425.2" width="45.2755" height="45.2755" as="geometry" />
        </mxCell>
        <mxCell id="e2MTIjUZ4DIBRAJPxZr3-224" value="" style="rounded=0;whiteSpace=wrap;html=1;strokeWidth=0.3937;" vertex="1" parent="1">
          <mxGeometry x="822.04" y="470.46999999999997" width="45.2755" height="45.2755" as="geometry" />
        </mxCell>
        <mxCell id="e2MTIjUZ4DIBRAJPxZr3-225" value="" style="rounded=0;whiteSpace=wrap;html=1;strokeWidth=0.3937;" vertex="1" parent="1">
          <mxGeometry x="904.3399999999999" y="425.2" width="45.2755" height="45.2755" as="geometry" />
        </mxCell>
        <mxCell id="e2MTIjUZ4DIBRAJPxZr3-226" value="" style="rounded=0;whiteSpace=wrap;html=1;strokeWidth=0.3937;" vertex="1" parent="1">
          <mxGeometry x="949.6199999999999" y="470.46999999999997" width="45.2755" height="45.2755" as="geometry" />
        </mxCell>
        <mxCell id="e2MTIjUZ4DIBRAJPxZr3-227" value="" style="rounded=0;whiteSpace=wrap;html=1;strokeWidth=0.3937;" vertex="1" parent="1">
          <mxGeometry x="1031.49" y="425.2" width="45.2755" height="45.2755" as="geometry" />
        </mxCell>
        <mxCell id="e2MTIjUZ4DIBRAJPxZr3-228" value="" style="rounded=0;whiteSpace=wrap;html=1;strokeWidth=0.3937;" vertex="1" parent="1">
          <mxGeometry x="1076.77" y="470.46999999999997" width="45.2755" height="45.2755" as="geometry" />
        </mxCell>
        <mxCell id="e2MTIjUZ4DIBRAJPxZr3-229" value="" style="rounded=0;whiteSpace=wrap;html=1;strokeWidth=0.3937;" vertex="1" parent="1">
          <mxGeometry x="649.5999999999999" y="629.9300000000001" width="45.2755" height="45.2755" as="geometry" />
        </mxCell>
        <mxCell id="e2MTIjUZ4DIBRAJPxZr3-230" value="" style="rounded=0;whiteSpace=wrap;html=1;strokeWidth=0.3937;" vertex="1" parent="1">
          <mxGeometry x="694.8799999999999" y="675.2" width="45.2755" height="45.2755" as="geometry" />
        </mxCell>
        <mxCell id="e2MTIjUZ4DIBRAJPxZr3-231" value="" style="rounded=0;whiteSpace=wrap;html=1;strokeWidth=0.3937;" vertex="1" parent="1">
          <mxGeometry x="776.77" y="629.9200000000001" width="45.2755" height="45.2755" as="geometry" />
        </mxCell>
        <mxCell id="e2MTIjUZ4DIBRAJPxZr3-232" value="" style="rounded=0;whiteSpace=wrap;html=1;strokeWidth=0.3937;" vertex="1" parent="1">
          <mxGeometry x="776.77" y="675.19" width="45.2755" height="45.2755" as="geometry" />
        </mxCell>
        <mxCell id="e2MTIjUZ4DIBRAJPxZr3-233" value="" style="rounded=0;whiteSpace=wrap;html=1;strokeWidth=0.3937;" vertex="1" parent="1">
          <mxGeometry x="822.05" y="675.19" width="45.2755" height="45.2755" as="geometry" />
        </mxCell>
        <mxCell id="e2MTIjUZ4DIBRAJPxZr3-234" value="" style="rounded=0;whiteSpace=wrap;html=1;strokeWidth=0.3937;" vertex="1" parent="1">
          <mxGeometry x="904.3299999999999" y="629.9300000000001" width="45.2755" height="45.2755" as="geometry" />
        </mxCell>
        <mxCell id="e2MTIjUZ4DIBRAJPxZr3-235" value="" style="rounded=0;whiteSpace=wrap;html=1;strokeWidth=0.3937;" vertex="1" parent="1">
          <mxGeometry x="904.3299999999999" y="675.2" width="45.2755" height="45.2755" as="geometry" />
        </mxCell>
        <mxCell id="e2MTIjUZ4DIBRAJPxZr3-236" value="" style="rounded=0;whiteSpace=wrap;html=1;strokeWidth=0.3937;" vertex="1" parent="1">
          <mxGeometry x="949.6100000000001" y="675.2" width="45.2755" height="45.2755" as="geometry" />
        </mxCell>
        <mxCell id="e2MTIjUZ4DIBRAJPxZr3-237" value="" style="rounded=0;whiteSpace=wrap;html=1;strokeWidth=0.3937;" vertex="1" parent="1">
          <mxGeometry x="1031.49" y="629.9300000000001" width="45.2755" height="45.2755" as="geometry" />
        </mxCell>
        <mxCell id="e2MTIjUZ4DIBRAJPxZr3-238" value="" style="rounded=0;whiteSpace=wrap;html=1;strokeWidth=0.3937;" vertex="1" parent="1">
          <mxGeometry x="1076.77" y="675.2" width="45.2755" height="45.2755" as="geometry" />
        </mxCell>
        <mxCell id="e2MTIjUZ4DIBRAJPxZr3-239" value="" style="rounded=0;whiteSpace=wrap;html=1;strokeWidth=0.3937;" vertex="1" parent="1">
          <mxGeometry x="669.29" y="566.9300000000001" width="25.5905" height="25.5905" as="geometry" />
        </mxCell>
        <mxCell id="e2MTIjUZ4DIBRAJPxZr3-240" value="" style="rounded=0;whiteSpace=wrap;html=1;strokeWidth=0.3937;" vertex="1" parent="1">
          <mxGeometry x="694.88" y="592.52" width="25.5905" height="25.5905" as="geometry" />
        </mxCell>
        <mxCell id="e2MTIjUZ4DIBRAJPxZr3-241" value="" style="rounded=0;whiteSpace=wrap;html=1;strokeWidth=0.3937;" vertex="1" parent="1">
          <mxGeometry x="796.45" y="566.9300000000001" width="25.5905" height="25.5905" as="geometry" />
        </mxCell>
        <mxCell id="e2MTIjUZ4DIBRAJPxZr3-242" value="" style="rounded=0;whiteSpace=wrap;html=1;strokeWidth=0.3937;" vertex="1" parent="1">
          <mxGeometry x="822.04" y="592.52" width="25.5905" height="25.5905" as="geometry" />
        </mxCell>
        <mxCell id="e2MTIjUZ4DIBRAJPxZr3-243" value="" style="rounded=0;whiteSpace=wrap;html=1;strokeWidth=0.3937;" vertex="1" parent="1">
          <mxGeometry x="924.02" y="566.9300000000001" width="25.5905" height="25.5905" as="geometry" />
        </mxCell>
        <mxCell id="e2MTIjUZ4DIBRAJPxZr3-244" value="" style="rounded=0;whiteSpace=wrap;html=1;strokeWidth=0.3937;" vertex="1" parent="1">
          <mxGeometry x="949.6099999999999" y="592.52" width="25.5905" height="25.5905" as="geometry" />
        </mxCell>
        <mxCell id="e2MTIjUZ4DIBRAJPxZr3-245" value="" style="rounded=0;whiteSpace=wrap;html=1;strokeWidth=0.3937;" vertex="1" parent="1">
          <mxGeometry x="1051.19" y="566.9300000000001" width="25.5905" height="25.5905" as="geometry" />
        </mxCell>
        <mxCell id="e2MTIjUZ4DIBRAJPxZr3-246" value="" style="rounded=0;whiteSpace=wrap;html=1;strokeWidth=0.3937;" vertex="1" parent="1">
          <mxGeometry x="1076.78" y="592.52" width="25.5905" height="25.5905" as="geometry" />
        </mxCell>
        <mxCell id="e2MTIjUZ4DIBRAJPxZr3-247" value="" style="rounded=0;whiteSpace=wrap;html=1;strokeWidth=0.3937;" vertex="1" parent="1">
          <mxGeometry x="993.52" y="527.5600000000001" width="19.685" height="19.685" as="geometry" />
        </mxCell>
        <mxCell id="e2MTIjUZ4DIBRAJPxZr3-248" value="" style="rounded=0;whiteSpace=wrap;html=1;strokeWidth=0.3937;" vertex="1" parent="1">
          <mxGeometry x="738.77" y="527.5600000000001" width="39.37" height="39.37" as="geometry" />
        </mxCell>
        <mxCell id="e2MTIjUZ4DIBRAJPxZr3-249" value="" style="rounded=0;whiteSpace=wrap;html=1;strokeWidth=0.3937;" vertex="1" parent="1">
          <mxGeometry x="738.77" y="732.2800000000001" width="39.37" height="39.37" as="geometry" />
        </mxCell>
        <mxCell id="e2MTIjUZ4DIBRAJPxZr3-250" value="" style="rounded=0;whiteSpace=wrap;html=1;strokeWidth=0.3937;" vertex="1" parent="1">
          <mxGeometry x="866.1400000000001" y="527.5600000000001" width="39.37" height="39.37" as="geometry" />
        </mxCell>
        <mxCell id="e2MTIjUZ4DIBRAJPxZr3-251" value="" style="rounded=0;whiteSpace=wrap;html=1;strokeWidth=0.3937;" vertex="1" parent="1">
          <mxGeometry x="866.35" y="732.28" width="39.37" height="39.37" as="geometry" />
        </mxCell>
        <mxCell id="e2MTIjUZ4DIBRAJPxZr3-252" value="" style="rounded=0;whiteSpace=wrap;html=1;strokeWidth=0.3937;" vertex="1" parent="1">
          <mxGeometry x="993.52" y="527.5600000000001" width="39.37" height="39.37" as="geometry" />
        </mxCell>
        <mxCell id="e2MTIjUZ4DIBRAJPxZr3-253" value="" style="rounded=0;whiteSpace=wrap;html=1;strokeWidth=0.3937;" vertex="1" parent="1">
          <mxGeometry x="993.52" y="732.28" width="39.37" height="39.37" as="geometry" />
        </mxCell>
        <mxCell id="e2MTIjUZ4DIBRAJPxZr3-254" value="" style="rounded=0;whiteSpace=wrap;html=1;strokeWidth=0.3937;" vertex="1" parent="1">
          <mxGeometry x="993.52" y="527.5600000000001" width="19.685" height="19.685" as="geometry" />
        </mxCell>
        <mxCell id="e2MTIjUZ4DIBRAJPxZr3-255" value="" style="rounded=0;whiteSpace=wrap;html=1;strokeWidth=0.3937;" vertex="1" parent="1">
          <mxGeometry x="1013.21" y="547.24" width="19.685" height="19.685" as="geometry" />
        </mxCell>
        <mxCell id="e2MTIjUZ4DIBRAJPxZr3-256" value="" style="rounded=0;whiteSpace=wrap;html=1;strokeWidth=0.3937;" vertex="1" parent="1">
          <mxGeometry x="866.1400000000001" y="527.5600000000001" width="19.685" height="19.685" as="geometry" />
        </mxCell>
        <mxCell id="e2MTIjUZ4DIBRAJPxZr3-257" value="" style="rounded=0;whiteSpace=wrap;html=1;strokeWidth=0.3937;" vertex="1" parent="1">
          <mxGeometry x="885.8299999999999" y="547.24" width="19.685" height="19.685" as="geometry" />
        </mxCell>
        <mxCell id="e2MTIjUZ4DIBRAJPxZr3-258" value="" style="rounded=0;whiteSpace=wrap;html=1;strokeWidth=0.3937;" vertex="1" parent="1">
          <mxGeometry x="738.77" y="527.5600000000001" width="19.685" height="19.685" as="geometry" />
        </mxCell>
        <mxCell id="e2MTIjUZ4DIBRAJPxZr3-259" value="" style="rounded=0;whiteSpace=wrap;html=1;strokeWidth=0.3937;" vertex="1" parent="1">
          <mxGeometry x="758.46" y="547.24" width="19.685" height="19.685" as="geometry" />
        </mxCell>
        <mxCell id="e2MTIjUZ4DIBRAJPxZr3-260" value="" style="rounded=0;whiteSpace=wrap;html=1;strokeWidth=0.3937;" vertex="1" parent="1">
          <mxGeometry x="993.52" y="732.2800000000001" width="19.685" height="19.685" as="geometry" />
        </mxCell>
        <mxCell id="e2MTIjUZ4DIBRAJPxZr3-261" value="" style="rounded=0;whiteSpace=wrap;html=1;strokeWidth=0.3937;" vertex="1" parent="1">
          <mxGeometry x="1013.21" y="751.96" width="19.685" height="19.685" as="geometry" />
        </mxCell>
        <mxCell id="e2MTIjUZ4DIBRAJPxZr3-262" value="" style="rounded=0;whiteSpace=wrap;html=1;strokeWidth=0.3937;" vertex="1" parent="1">
          <mxGeometry x="866.1400000000001" y="732.2900000000001" width="19.685" height="19.685" as="geometry" />
        </mxCell>
        <mxCell id="e2MTIjUZ4DIBRAJPxZr3-263" value="" style="rounded=0;whiteSpace=wrap;html=1;strokeWidth=0.3937;" vertex="1" parent="1">
          <mxGeometry x="885.8299999999999" y="751.97" width="19.685" height="19.685" as="geometry" />
        </mxCell>
        <mxCell id="e2MTIjUZ4DIBRAJPxZr3-264" value="" style="rounded=0;whiteSpace=wrap;html=1;strokeWidth=0.3937;" vertex="1" parent="1">
          <mxGeometry x="738.78" y="732.2900000000001" width="19.685" height="19.685" as="geometry" />
        </mxCell>
        <mxCell id="e2MTIjUZ4DIBRAJPxZr3-265" value="" style="rounded=0;whiteSpace=wrap;html=1;strokeWidth=0.3937;" vertex="1" parent="1">
          <mxGeometry x="758.47" y="751.97" width="19.685" height="19.685" as="geometry" />
        </mxCell>
      </root>
    </mxGraphModel>
  </diagram>
</mxfile>
